<?xml version="1.0" encoding="UTF-8" standalone="no"?>
<svg width="30px" height="30px" viewBox="0 0 30 30" version="1.1" xmlns="http://www.w3.org/2000/svg" xmlns:xlink="http://www.w3.org/1999/xlink">
    <!-- Generator: Sketch 40 (33762) - http://www.bohemiancoding.com/sketch -->
    <title>icn_experts-groups</title>
    <desc>Created with Sketch.</desc>
    <defs></defs>
    <g id="Symbols" stroke="none" stroke-width="1" fill="none" fill-rule="evenodd">
        <g id="icn_experts-groups">
            <g id="Group">
                <path d="M16.0845021,15.844956 C16.1114367,15.8839761 16.1571634,15.9056361 16.204418,15.9017583 L19.2717391,15.6461482 C19.337497,15.6411545 19.3968435,15.6048488 19.4312317,15.5485773 C19.4656198,15.4923057 19.4708552,15.4229321 19.4453015,15.3621369 L18.2840112,12.5220247 C18.2660796,12.4735841 18.2216395,12.4399739 18.1701466,12.4359087 C18.1186537,12.4318434 18.0694901,12.4580638 18.0441795,12.5030907 L17.4130435,13.5381538 C15.7528311,12.5368752 13.6548711,12.6250263 12.0845047,13.7620458 C10.5141383,14.8990654 9.77556444,16.864699 10.2086255,18.7544932 C10.2288172,18.8425502 10.3111924,18.9019683 10.401122,18.8933431 L11.3920056,18.8239182 C11.4452581,18.8192929 11.4936949,18.7912229 11.5241842,18.7473183 C11.5546736,18.7034136 11.5640567,18.648223 11.5497896,18.5967092 C11.1735844,17.2206666 11.6702482,15.7540026 12.8051246,14.8896653 C13.940001,14.0253279 15.4859176,13.9363346 16.7124825,14.6647316 L16.0813464,15.6997947 C16.0534435,15.7445055 16.0546825,15.8015 16.0845021,15.844956 L16.0845021,15.844956 Z" id="Path" fill="#C2CFD8"></path>
                <path d="M11.6002805,23.1724455 C11.6182121,23.2208862 11.6626522,23.2544964 11.7141451,23.2585616 C11.765638,23.2626268 11.8148016,23.2364064 11.8401122,23.1913796 L12.4712482,22.1563165 C14.1330634,23.1599502 16.2342089,23.0714031 17.8056909,21.9315107 C19.3771729,20.7916184 20.1137241,18.82181 19.6756662,16.93051 C19.6554745,16.842453 19.5730994,16.7830349 19.4831697,16.7916601 L18.4985975,16.8737078 C18.445345,16.878333 18.3969082,16.906403 18.3664188,16.9503077 C18.3359295,16.9942123 18.3265464,17.0494029 18.3408135,17.1009167 C18.7194988,18.478819 18.2224045,19.948549 17.0850701,20.8137007 C15.9477357,21.6788525 14.3986457,21.7656217 13.1718093,21.0328943 L13.8029453,19.9978312 C13.8493595,19.9570118 13.8613962,19.8895293 13.831957,19.8351801 C13.8025179,19.780831 13.7394199,19.7540465 13.6798738,19.7706222 L10.6125526,20.0262323 C10.5467947,20.0312259 10.4874482,20.0675317 10.45306,20.1238032 C10.4186719,20.1800748 10.4134365,20.2494484 10.4389902,20.3102435 L11.6002805,23.1724455 Z" id="Path" fill="#C2CFD8"></path>
                <g id="Group-17">
                    <path d="M9.93129403,27.562289 C10.0533216,27.2584301 10.362333,27.1007205 10.6534789,27.1937088 C10.9446248,27.2866972 11.1276115,27.6015447 11.0811336,27.9295333 C11.0346558,28.2575219 10.7731278,28.4969316 10.4699213,28.4890533 C10.3892695,28.4875599 10.3097702,28.4678398 10.2364124,28.4311306 C10.0905732,28.3603151 9.97645657,28.2289337 9.91922034,28.0659504 C9.86198412,27.902967 9.86632788,27.7217641 9.93129403,27.562289 L9.93129403,27.562289 Z M5.33895136,12.0219503 C5.42833158,12.0774565 5.52887578,12.1078906 5.63161591,12.1105381 C5.93557546,12.1157806 6.19573104,11.8729868 6.23899573,11.5436923 C6.28226042,11.2143979 6.09515082,10.901227 5.80215485,10.812539 C5.50915888,10.7238509 5.20158842,10.8872851 5.08407652,11.1941054 C4.96656462,11.5009256 5.07573373,11.8555118 5.33895136,12.0219503 L5.33895136,12.0219503 Z M3.6794811,15.9777348 C3.64651852,16.3349331 3.88011752,16.6556179 4.2056546,16.7000659 L4.26169675,16.7000659 C4.57843143,16.712806 4.85029229,16.4554579 4.88438728,16.1106165 L4.88438728,16.1106165 L4.88438728,16.1106165 C4.8974182,15.762553 4.66137586,15.463162 4.34484523,15.426273 C4.0283146,15.3893839 3.73995099,15.6276598 3.68570801,15.9709204 L3.68570801,15.9709204 L3.6794811,15.9777348 Z M23.4281113,11.8141098 C23.5309151,12.0188891 23.7252901,12.1485934 23.9387175,12.1548319 C24.0479845,12.1573442 24.1557514,12.126681 24.2500628,12.0662442 C24.5371369,11.8845781 24.6354647,11.4827547 24.4697689,11.1683997 C24.3040731,10.8540447 23.9370001,10.7460096 23.6495716,10.9270033 C23.3621431,11.1079969 23.2630302,11.5095893 23.4281113,11.8243314 L23.4281113,11.8141098 Z M20.6602519,8.43755294 C20.9293936,8.65284331 21.3070299,8.58879437 21.5039975,8.29444962 C21.6483653,8.07870916 21.6597346,7.78903166 21.5328022,7.56053899 C21.4058698,7.33204631 21.1656434,7.20975506 20.924178,7.25070875 C20.6827126,7.29166244 20.4875807,7.48779255 20.4298028,7.74761299 C20.3720248,8.00743342 20.462984,8.27975551 20.6602519,8.43755294 L20.6602519,8.43755294 Z M14.1687031,28.8229611 C14.1686332,29.182765 14.4315472,29.4765435 14.7602591,29.4839621 L14.7602591,29.4839621 C15.0056282,29.4894998 15.2296654,29.3320105 15.3270912,29.0855016 C15.424517,28.8389927 15.3759599,28.5524783 15.2042379,28.3605971 C15.0325158,28.1687159 14.7717729,28.1096204 14.5445372,28.2110806 C14.3173016,28.3125408 14.1687553,28.5543831 14.1687031,28.8229611 L14.1687031,28.8229611 Z M19.3183538,28.4311306 C19.6235672,28.2862353 19.7636582,27.8980044 19.6312557,27.5639926 C19.4988533,27.2299808 19.1440955,27.0766716 18.8388821,27.2215668 L18.8388821,27.2215668 C18.6327051,27.3111395 18.4879846,27.5171847 18.461921,27.7582634 C18.4358574,27.9993421 18.5326452,28.2366569 18.7140292,28.3764097 C18.8954133,28.5161625 19.1322029,28.5358625 19.3308076,28.4277234 L19.3183538,28.4311306 Z M8.25314305,7.35064918 C8.05457135,7.50710033 7.96186575,7.77919818 8.01836894,8.03972874 C8.07487213,8.3002593 8.26942027,8.49774729 8.51105622,8.53986108 C8.75269217,8.58197488 8.99367381,8.46039369 9.12133493,8.23196042 C9.24899604,8.00352714 9.23811352,7.71337532 9.09377526,7.49715972 C8.89795819,7.20382994 8.52253615,7.13839909 8.25314305,7.35064918 L8.25314305,7.35064918 Z M25.3086367,16.7205092 L25.3771326,16.7205092 C25.6976485,16.6984284 25.9442404,16.4018408 25.9341469,16.050562 C25.9240534,15.6992833 25.6609215,15.4202361 25.3397712,15.4202361 C25.0186209,15.4202361 24.755489,15.6992833 24.7453955,16.050562 C24.735302,16.4018408 24.9818939,16.6984284 25.3024098,16.7205092 L25.3086367,16.7205092 Z" id="Shape" fill="#FF8623"></path>
                    <g id="Group-16">
                        <path d="M15.9961431,9.06024354 L19.2464937,9.06024354 L19.2464937,7.84846233 C19.2457703,7.59236305 19.1298897,7.35017248 18.9309257,7.18892516 C18.2100621,6.60816486 17.4330754,6.10074499 16.6115007,5.67419866 L15.9961431,9.06024354 Z" id="Path" fill="#FF8730"></path>
                        <path d="M12.9193548,3.38001913 C13.0487377,3.85337117 13.1749649,3.9922211 13.2696353,3.9922211 C13.3102307,4.22835848 13.3936494,4.45508617 13.5157784,4.6612253 L13.5157784,5.25449319 L14.8064516,6.20119725 L14.3236325,6.8323333 L14.6392006,7.35617622 L14.3835905,9.07917762 L15.4849229,9.07917762 L15.2293128,7.35617622 L15.5448808,6.8323333 L15.0620617,6.20119725 L16.3527349,5.25449319 L16.3527349,4.65491394 C16.4805231,4.45224163 16.5693519,4.22749407 16.6146564,3.9922211 C16.7093268,3.9922211 16.8323983,3.85337117 16.9649369,3.38317481 C17.1479663,2.75203877 16.9649369,2.64790132 16.7913745,2.66367972 C16.8216737,2.57735182 16.8448921,2.48869976 16.8607994,2.39860258 C17.151122,0.741870466 16.3211781,0.681912542 16.3211781,0.681912542 C16.2005874,0.487276368 16.0293271,0.329105995 15.8257363,0.224338909 C15.5195971,0.0466288538 15.1646639,-0.0285595006 14.812763,0.00975265395 C14.6752393,0.0159670091 14.5392695,0.0414613471 14.4088359,0.0854889793 L14.4088359,0.0854889793 C14.2516564,0.14016035 14.1029378,0.216644234 13.9670407,0.312697955 C13.7994408,0.418285205 13.6457207,0.544441728 13.509467,0.688223902 C13.2689395,0.925656767 13.0985926,1.22485588 13.0171809,1.55288028 C12.9534163,1.83118199 12.9534163,2.12030088 13.0171809,2.39860258 L13.0171809,2.39860258 C13.0330746,2.48870276 13.0562933,2.57735592 13.0866059,2.66367972 C12.9319776,2.64790132 12.7331697,2.72994901 12.9193548,3.38633049 L12.9193548,3.38001913 Z" id="Path" fill="#FF8730"></path>
                        <path d="M10.637798,7.84846233 L10.637798,9.06024354 L13.8881487,9.06024354 L13.2570126,5.67104298 C12.4354379,6.09758931 11.6584512,6.60500918 10.9375877,7.18576948 C10.7436554,7.35077388 10.6336851,7.59386609 10.637798,7.84846233 L10.637798,7.84846233 Z" id="Path" fill="#FF8730"></path>
                        <path d="M27.2492987,25.9157835 L26.6181627,29.3049841 L29.8685133,29.3049841 L29.8685133,28.0932029 C29.8677899,27.8371036 29.7519093,27.594913 29.5529453,27.4336657 C28.8372074,26.8526887 28.065538,26.3442325 27.2492987,25.9157835 L27.2492987,25.9157835 Z" id="Path" fill="#09ACF8"></path>
                        <path d="M26.9337307,20.9266531 C26.8140031,20.732442 26.6438768,20.5743118 26.4414446,20.4690794 C26.1353054,20.2913694 25.7803722,20.216181 25.4284712,20.2544932 C25.2909476,20.2607075 25.1549778,20.2862019 25.0245442,20.3302295 L25.0245442,20.3302295 C24.8673647,20.3849009 24.7186461,20.4613848 24.5827489,20.5574385 C24.4151491,20.6630257 24.261429,20.7891823 24.1251753,20.9329644 C23.8846478,21.1703973 23.7143008,21.4695964 23.6328892,21.7976208 C23.5691246,22.0759225 23.5691246,22.3650414 23.6328892,22.6433431 L23.6328892,22.6433431 C23.6487966,22.7334403 23.672015,22.8220924 23.7023142,22.9084203 C23.5382188,22.9084203 23.3457223,22.9873123 23.5287518,23.6279153 C23.6612903,24.0981117 23.7843619,24.2274946 23.8790323,24.2369616 C23.9196276,24.473099 24.0030463,24.6998267 24.1251753,24.9059658 L24.1251753,25.4929224 L25.4158485,26.4396264 L24.9330295,27.0707625 L25.2485975,27.5946054 L24.9929874,29.3176068 L26.0943198,29.3176068 L25.8387097,27.5946054 L26.1542777,27.0707625 L25.7030154,26.4396264 L26.9936886,25.4929224 L26.9936886,24.8996545 C27.1199903,24.6946057 27.2066939,24.4676776 27.2492987,24.2306503 C27.3439691,24.2306503 27.4670407,24.0918003 27.5995792,23.621604 C27.7826087,22.9904679 27.5995792,22.8863305 27.4260168,22.9021089 C27.456316,22.815781 27.4795344,22.7271289 27.4954418,22.6370318 C27.7605189,20.9834553 26.9337307,20.9266531 26.9337307,20.9266531 L26.9337307,20.9266531 Z" id="Path" fill="#09ACF8"></path>
                        <path d="M21.5690743,27.4336657 C21.3701103,27.594913 21.2542297,27.8371036 21.2535063,28.0932029 L21.2535063,29.3049841 L24.5101683,29.3049841 L23.8790323,25.9157835 C23.0606052,26.3438719 22.2868071,26.8523376 21.5690743,27.4336657 L21.5690743,27.4336657 Z" id="Path" fill="#09ACF8"></path>
                        <path d="M8.63078541,28.0932029 C8.63006203,27.8371036 8.51418138,27.594913 8.31521739,27.4336657 C7.59435383,26.8529054 6.81736715,26.3454855 5.99579243,25.9189392 L5.36465638,29.3081398 L8.63078541,29.3081398 L8.63078541,28.0932029 Z" id="Path" fill="#50D2C2"></path>
                        <path d="M6.16935484,22.9084203 C6.19962737,22.8220842 6.22284519,22.7334343 6.2387798,22.6433431 C6.51647966,20.9834553 5.69600281,20.9234974 5.69600281,20.9234974 C5.57627518,20.7292864 5.40614886,20.5711561 5.20371669,20.4659238 C4.8975775,20.2882137 4.54264424,20.2130254 4.19074334,20.2513375 C4.05321971,20.2575519 3.91724991,20.2830462 3.78681627,20.3270738 L3.78681627,20.3270738 C3.62963681,20.3817452 3.48091815,20.4582291 3.34502104,20.5542828 C3.1774212,20.6598701 3.02370107,20.7860266 2.88744741,20.9298088 C2.64691986,21.1672416 2.47657292,21.4664407 2.39516129,21.7944651 C2.33139668,22.0727668 2.33139668,22.3618857 2.39516129,22.6401874 L2.39516129,22.6401874 C2.41106868,22.7302846 2.43428707,22.8189367 2.46458626,22.9052646 C2.30049088,22.9052646 2.10799439,22.9841566 2.29102384,23.6247597 C2.42356241,24.094956 2.54663394,24.2243389 2.64130435,24.2338059 C2.68189968,24.4699433 2.76531836,24.696671 2.88744741,24.9028102 L2.88744741,25.4929224 L4.17812062,26.4396264 L3.69530154,27.0707625 L4.01086957,27.5946054 L3.75525947,29.3176068 L4.85659187,29.3176068 L4.60098177,27.5946054 L4.91654979,27.0707625 L4.43373072,26.4396264 L5.72440393,25.4929224 L5.72440393,24.8996545 C5.84665738,24.6958458 5.93011208,24.4711601 5.97054698,24.2369616 C6.06521739,24.2369616 6.18828892,24.0981117 6.32082749,23.6279153 C6.52279102,22.9873123 6.33029453,22.8926419 6.16935484,22.9084203 L6.16935484,22.9084203 Z" id="Path" fill="#50D2C2"></path>
                        <path d="M2.63499299,25.9157835 C1.81341826,26.3423298 1.03643159,26.8497497 0.315568022,27.43051 C0.116604033,27.5917573 0.000723381443,27.8339479 0,28.0900472 L0,29.3018284 L3.26612903,29.3018284 L2.63499299,25.9157835 Z" id="Path" fill="#50D2C2"></path>
                    </g>
                </g>
            </g>
        </g>
    </g>
</svg>