<?xml version="1.0" encoding="UTF-8" standalone="no"?>
<svg width="30px" height="24px" viewBox="0 0 30 24" version="1.1" xmlns="http://www.w3.org/2000/svg" xmlns:xlink="http://www.w3.org/1999/xlink">
    <!-- Generator: Sketch 40 (33762) - http://www.bohemiancoding.com/sketch -->
    <title>icn_fair</title>
    <desc>Created with Sketch.</desc>
    <defs></defs>
    <g id="Symbols" stroke="none" stroke-width="1" fill="none" fill-rule="evenodd">
        <g id="icn_fair">
            <g>
                <path d="M24.500689,10.0720722 C23.2405344,9.64224493 19.8192146,9.00071167 19.8192146,7.39687851 C19.8192146,6.13947332 20.9785568,5.38246407 22.1631022,5.38246407 C23.6374831,5.38246407 24.4061774,6.16513465 24.4817867,7.98067378 L29.4026905,7.98067378 C29.3774874,4.36884151 27.222623,2.59820971 23.5114676,2.35442707 L23.5114676,0 L21.0604669,0 L21.0604669,2.38650373 C18.8614971,2.59820971 17.0657767,3.34238829 15.975743,4.68319281 L20.890346,10.9317268 C21.501521,11.7015667 21.6338372,12.7665119 21.2494901,13.6774891 C22.194606,13.9469331 22.8435857,14.1073164 23.4547607,14.3575144 C24.2675604,14.7103577 24.7401184,15.2492456 24.7401184,16.1024849 C24.7401184,17.6036727 23.4295576,18.3286053 22.0874929,18.3286053 C20.3736826,18.3286053 19.3970628,17.4689507 19.3718597,15.4352903 L15.4653804,15.4352903 L15.4653804,18.9380619 C16.530211,20.561141 18.4771499,21.3245656 21.0604669,21.4657029 L21.0604669,23.743146 L23.5114676,23.743146 L23.5114676,21.4143803 C26.611448,21.119275 29.7744361,19.5346878 29.7744361,15.3775523 C29.7618345,11.707982 27.0020959,10.9317268 24.500689,10.0720722 L24.500689,10.0720722 Z" id="Shape" fill="#FF8730"></path>
                <path d="M19.586086,12.9910486 C19.724703,12.6895279 19.6868983,12.3366846 19.4852736,12.073656 L10.5003712,0.647948595 C10.336551,0.442657951 10.0971217,0.327181964 9.83878997,0.327181964 C9.58045828,0.327181964 9.33472813,0.449073283 9.1772088,0.647948595 L0.186005572,12.073656 C-0.0156191679,12.3302693 -0.0597245797,12.6895279 0.0851932018,12.9910486 C0.22381021,13.2925692 0.526247319,13.4786138 0.853887521,13.4786138 L6.00791992,13.4786138 L6.00791992,22.1649742 C6.00791992,22.6397088 6.38596631,23.0310441 6.85852429,23.0310441 L12.8316572,23.0310441 C13.2979144,23.0310441 13.6822616,22.6461241 13.6822616,22.1649742 L13.6822616,13.4786138 L18.836294,13.4786138 C19.1513326,13.4786138 19.447469,13.2861539 19.586086,12.9910486 L19.586086,12.9910486 Z" id="Path" fill="#50D2C2"></path>
            </g>
        </g>
    </g>
</svg>