<?xml version="1.0" encoding="UTF-8" standalone="no"?>
<svg width="30px" height="29px" viewBox="0 0 30 29" version="1.1" xmlns="http://www.w3.org/2000/svg" xmlns:xlink="http://www.w3.org/1999/xlink">
    <!-- Generator: Sketch 40 (33762) - http://www.bohemiancoding.com/sketch -->
    <title>icn_fundrising</title>
    <desc>Created with Sketch.</desc>
    <defs></defs>
    <g id="Symbols" stroke="none" stroke-width="1" fill="none" fill-rule="evenodd">
        <g id="icn_fundrising">
            <g>
                <path d="M25.7646783,25.5895272 C25.4754322,25.9958588 24.9986798,26.198144 24.3354043,26.198144 C23.0712732,26.198144 22.4396992,25.255656 22.4396992,23.3699253 C22.4396992,22.3174888 22.5896059,21.583576 22.889665,21.1666773 C23.1897241,20.7502818 23.6713914,20.5417066 24.3354043,20.5417066 C24.9984341,20.5417066 25.4754322,20.7502818 25.7646783,21.1666773 C26.0539245,21.583576 26.2087461,22.3174888 26.230372,23.3699253 C26.2089919,24.4445025 26.0539245,25.1847052 25.7646783,25.5895272 M29.5393774,20.7558169 C29.2604527,20.0437932 28.8699582,19.4683874 28.3671564,19.029348 C27.8633717,18.5908119 27.2698888,18.2727914 26.5840043,18.0752865 C25.8983656,17.8785365 25.149078,17.7796583 24.3358957,17.7796583 C23.5219763,17.7796583 22.7670364,17.8840717 22.0710763,18.0916404 C21.3751161,18.3002156 20.7806502,18.6343384 20.2884157,19.0947637 C19.7956896,19.5554405 19.4098643,20.1363814 19.1324141,20.8380896 C18.8534893,21.5400494 18.7146414,22.3834076 18.7146414,23.3699253 C18.7146414,24.4007243 18.8537351,25.2722615 19.1324141,25.9847885 C19.4098643,26.697567 19.7954439,27.2724696 20.2884157,27.7112573 C20.7806502,28.1497935 21.3751161,28.4673108 22.0710763,28.664564 C22.7670364,28.862572 23.5219763,28.9609471 24.3358957,28.9609471 C25.149078,28.9609471 25.8986114,28.8628236 26.5840043,28.664564 C27.2698888,28.4675624 27.8633717,28.1500451 28.3671564,27.7112573 C28.8699582,27.2729728 29.2609442,26.697567 29.5393774,25.9847885 C29.8175649,25.2722615 29.9672258,24.4007243 29.9890975,23.3699253 C29.9672258,22.3401326 29.8173192,21.4678407 29.5393774,20.7558169" id="Fill-2-Copy" fill="#FFAB24"></path>
                <path d="M7.61133664,9.64097965 C7.31297774,10.0551645 6.8212052,10.2613593 6.13703299,10.2613593 C4.8330753,10.2613593 4.18160343,9.30065566 4.18160343,7.3784791 C4.18160343,6.30570197 4.33623294,5.5576047 4.64574545,5.13264853 C4.95525796,4.70820527 5.45210032,4.49559895 6.13703299,4.49559895 C6.82095171,4.49559895 7.31297774,4.70820527 7.61133664,5.13264853 C7.90969555,5.5576047 8.06939488,6.30570197 8.09170209,7.3784791 C8.06964837,8.47382481 7.90969555,9.22833361 7.61133664,9.64097965 M11.5049584,4.71384741 C11.2172461,3.98806227 10.8144489,3.40153554 10.2958063,2.95401078 C9.77614977,2.50699894 9.16396901,2.182832 8.45647563,1.98150998 C7.74923575,1.78095733 6.97634169,1.68016809 6.13753998,1.68016809 C5.29797779,1.68016809 4.51925344,1.78659948 3.80136693,1.99817995 C3.08348042,2.21078627 2.4702857,2.55136672 1.96254323,3.02069069 C1.45429377,3.49027111 1.05631291,4.08243998 0.770121569,4.79771022 C0.482409285,5.51323692 0.339186871,6.3728948 0.339186871,7.3784791 C0.339186871,8.42920057 0.482662776,9.3175821 0.770121569,10.0438802 C1.05631291,10.7704347 1.45404028,11.3564485 1.96254323,11.8037168 C2.4702857,12.2507286 3.08348042,12.5743827 3.80136693,12.7754482 C4.51925344,12.9772832 5.29797779,13.0775595 6.13753998,13.0775595 C6.97634169,13.0775595 7.74948924,12.9775396 8.45647563,12.7754482 C9.16396901,12.5746391 9.77614977,12.2509851 10.2958063,11.8037168 C10.8144489,11.3569614 11.2177531,10.7704347 11.5049584,10.0438802 C11.7919102,9.3175821 11.9462862,8.42920057 11.9688469,7.3784791 C11.9462862,6.32878348 11.7916567,5.43963256 11.5049584,4.71384741" id="Fill-2-Copy-3" fill="#FFAB24"></path>
                <path d="M28.8232163,2.19560528 C28.8232163,0.829293902 27.7514054,-0.0249306389 26.4167632,0.290595711 L19.6155499,1.8984888 C18.2865026,2.21269245 18.1032288,3.13367767 19.1931215,3.94582384 L21.0642175,5.34009278 L11.8670339,17.2419109 L6.93761045,17.2419114 L1.49877864,23.545864 C0.160625558,25.0968687 0.439702264,27.3059108 2.11277264,28.4733792 L0.100834921,27.0694492 C1.77808753,28.239836 4.20438921,27.9115786 5.51066784,26.3475964 L9.51030872,21.5589036 L14.2977134,21.5471219 L24.8421113,8.15514866 L26.8443271,9.64778977 C27.9372374,10.4625485 28.8232163,10.0090714 28.8232163,8.64911538 L28.8232163,2.19560528 Z" id="Fill-1" fill="#09ACF8"></path>
            </g>
        </g>
    </g>
</svg>