<?xml version="1.0" encoding="UTF-8" standalone="no"?>
<svg width="30px" height="30px" viewBox="0 0 30 30" version="1.1" xmlns="http://www.w3.org/2000/svg" xmlns:xlink="http://www.w3.org/1999/xlink">
    <!-- Generator: Sketch 40 (33762) - http://www.bohemiancoding.com/sketch -->
    <title>icn_legal</title>
    <desc>Created with Sketch.</desc>
    <defs>
        <path d="M21.122644,12.038175 L24.4173466,6.13029472 L27.7099122,12.038175 L21.122644,12.038175 Z M23.53534,4.68751679 C22.8013707,6.00380556 19.4173018,12.0728463 19.4173018,12.0728463 L19,12.4476096 C19,14.9578795 21.4305693,17 24.4173466,17 C27.4037355,17 29.8333333,14.9582279 29.8333333,12.4476096 L29.413506,12.0705813 L25.1105183,4.35003812 C25.1105183,4.35003812 24.2693094,3.3710538 23.53534,4.68751679 L23.53534,4.68751679 Z" id="path-1"></path>
        <filter x="-50%" y="-50%" width="200%" height="200%" filterUnits="objectBoundingBox" id="filter-2">
            <feOffset dx="0" dy="1" in="SourceAlpha" result="shadowOffsetInner1"></feOffset>
            <feComposite in="shadowOffsetInner1" in2="SourceAlpha" operator="arithmetic" k2="-1" k3="1" result="shadowInnerInner1"></feComposite>
            <feColorMatrix values="0 0 0 0 1   0 0 0 0 1   0 0 0 0 1  0 0 0 0.200000003 0" type="matrix" in="shadowInnerInner1"></feColorMatrix>
        </filter>
        <path d="M2.15530011,12.1618393 L5.50069042,6.16306849 L8.84391084,12.1618393 L2.15530011,12.1618393 Z M4.6051145,4.69809397 C3.85985331,6.03463333 0.423721823,12.1970439 0.423721823,12.1970439 L0,12.5775729 C0,15.1264622 2.46796263,17.2 5.50069042,17.2 C8.53302369,17.2 11,15.126816 11,12.5775729 L10.5737138,12.1947441 L6.2045263,4.35542333 C6.2045263,4.35542333 5.3503757,3.36137771 4.6051145,4.69809397 L4.6051145,4.69809397 Z" id="path-3"></path>
        <filter x="-50%" y="-50%" width="200%" height="200%" filterUnits="objectBoundingBox" id="filter-4">
            <feOffset dx="0" dy="1" in="SourceAlpha" result="shadowOffsetInner1"></feOffset>
            <feComposite in="shadowOffsetInner1" in2="SourceAlpha" operator="arithmetic" k2="-1" k3="1" result="shadowInnerInner1"></feComposite>
            <feColorMatrix values="0 0 0 0 1   0 0 0 0 1   0 0 0 0 1  0 0 0 0.200000003 0" type="matrix" in="shadowInnerInner1"></feColorMatrix>
        </filter>
    </defs>
    <g id="Symbols" stroke="none" stroke-width="1" fill="none" fill-rule="evenodd">
        <g id="icn_legal">
            <g transform="translate(0.000000, 2.000000)">
                <path d="M20.9597393,26 C21.7901911,26 22.2407412,25.3742616 21.9635138,24.5951876 L21.7076493,23.8761483 L21.0801912,23.6507778 L16.94722,23.6507778 C17.0361365,22.7069405 17.0880745,22.444444 16.9255371,21.329095 C16.7367786,20.0486835 16.4566805,15.0443497 16.4534869,15.0173331 L16.3712937,14.74525 C16.4375189,14.6148733 16.4766825,14.4484163 16.4729846,14.2889313 C16.4691187,14.1397301 16.4225594,13.8782793 16.1902671,13.6537803 L16.1067293,5.97497145 C16.1990075,5.82263281 16.2717879,5.6131236 16.2272456,5.36857999 C16.2111095,5.28456714 16.1658949,5.12508218 16.0331084,4.97936696 C15.9917597,4.74841879 15.9238537,4.56732056 15.8388032,4.42718295 L16.465757,4.41968803 C16.6640963,4.43450357 17.8204655,4.45751124 18.9536888,3.95343418 C19.4883644,3.71429388 19.8374752,3.5846143 20.1501117,3.5846143 C20.3763529,3.5846143 20.6859639,3.64073907 21.2680393,4.05592287 C21.4695722,4.20006939 21.6840475,4.36687498 21.9059186,4.53856098 C22.6594398,5.12316488 23.4344758,5.72101561 24.1893416,5.88468379 L24.0195766,6.23659651 L25.8846383,6.23659651 L25.5521678,5.54706371 C25.6899968,5.43097957 25.8095046,5.29345647 25.8864872,5.12699949 C25.9806143,4.96402851 26.0061631,4.81901049 25.9964142,4.69595433 C25.9991036,4.66074563 26.0002801,4.62414252 25.999944,4.58701652 C25.9937249,3.91630817 25.4627471,3.37039898 24.801336,3.37039898 C24.4851697,3.37423359 24.1883331,3.50530757 23.9674706,3.74009036 C23.890488,3.82183729 23.8261118,3.91247356 23.7740057,4.00973324 C23.7353464,3.97225863 23.6965189,3.93582982 23.6592042,3.89957532 C23.3221955,3.57781658 23.0609928,3.31340272 22.8214729,3.07112501 C21.8139766,2.05233855 21.0858361,1.56895175 19.6285466,1.36850617 C19.4325605,1.34148959 19.2347254,1.32754555 19.0410925,1.32754555 C18.1536083,1.32754555 17.2330611,1.60660066 16.6899812,1.83127401 C16.4005404,1.95084416 16.1507673,2.05403006 15.9678918,2.0697171 C15.8534265,2.07982653 15.7508952,2.08871586 15.6596255,2.09586218 C15.6777786,1.8624738 15.6892083,1.65331319 15.6352533,1.41853041 C15.5730621,1.15673105 15.0794188,0 15.0794188,0 L14.7308352,0 C14.7308352,0 14.3432592,1.16962929 14.2861106,1.43805207 C14.2378705,1.67248625 14.254847,1.88129826 14.3086339,2.05786467 C14.1861006,2.11189783 14.0837373,2.10562301 13.9694401,2.09777949 C13.7867327,2.08644995 13.533766,1.98901597 13.2409635,1.87572064 C12.7157005,1.67266055 11.8178447,1.42044772 10.9784325,1.42044772 C10.7526955,1.42044772 10.5229245,1.43927217 10.2950024,1.47604958 C8.84292353,1.71118096 8.13175954,2.21008051 7.14695457,3.25048023 C6.91264528,3.49850985 6.6559808,3.76937284 6.36233781,4.06254629 C6.30888705,4.11640515 6.25829372,4.16642939 6.21038974,4.21331623 C6.003142,3.84606506 5.61654848,3.59786114 5.17078934,3.59786114 C4.85462308,3.60169575 4.55862691,3.73346694 4.33742818,3.96877262 C4.11589328,4.203904 3.99638546,4.5138103 4.00008331,4.84166956 C4.0002514,4.87652966 4.00210032,4.91086686 4.00512584,4.94502976 C3.99756205,5.06948032 4.02580018,5.21606705 4.125306,5.37834082 C4.20296087,5.54096319 4.32431762,5.67465168 4.4633232,5.78742411 L4.33070481,6.062296 L6.02835462,6.062296 C6.71396982,5.81635799 7.41521685,5.25022994 8.09814271,4.69508283 C8.31413083,4.51938792 8.52356367,4.34892203 8.72005403,4.2016381 C9.30565917,3.76309802 9.62182544,3.70418445 9.85394963,3.70418445 C10.1615436,3.70418445 10.5056118,3.8237546 11.0330599,4.04494194 C11.9168463,4.41463332 12.8999207,4.46971228 13.2618059,4.46971228 C13.3892137,4.46971228 13.4803153,4.46343746 13.5285554,4.45873134 L14.1545008,4.45175932 C14.0734842,4.59363994 14.0094441,4.77526106 13.9736422,5.00673214 C13.8440494,5.15523617 13.8016922,5.31489543 13.7877412,5.39855968 C13.7475691,5.64484629 13.8255601,5.85086949 13.9212,6.00163943 L14.0040655,13.674522 C13.775471,13.9044244 13.7349627,14.1587288 13.7346266,14.3077558 C13.7342904,14.4670664 13.77732,14.612956 13.8455621,14.7419383 L13.76942,14.975501 C13.7670668,15.0028662 13.4955128,20.0926072 13.3375137,21.3766791 C13.2011975,22.4608282 13.2564972,23.3361654 13.3511286,23.6507778 L9.38657763,23.6507778 L8.83021913,23.8754511 L8.50494692,24.6185152 C8.17095971,25.3814882 8.56380256,26 9.40387555,26 L20.9597393,26 Z" id="Fill-1" fill="#C2CFD8"></path>
                <g id="Fill-4">
                    <use fill="#50D2C2" fill-rule="evenodd" xlink:href="#path-1"></use>
                    <use fill="black" fill-opacity="1" filter="url(#filter-2)" xlink:href="#path-1"></use>
                </g>
                <g id="Fill-6">
                    <use fill="#50D2C2" fill-rule="evenodd" xlink:href="#path-3"></use>
                    <use fill="black" fill-opacity="1" filter="url(#filter-4)" xlink:href="#path-3"></use>
                </g>
            </g>
        </g>
    </g>
</svg>