<?xml version="1.0" encoding="UTF-8" standalone="no"?>
<svg width="27px" height="30px" viewBox="0 0 27 30" version="1.1" xmlns="http://www.w3.org/2000/svg" xmlns:xlink="http://www.w3.org/1999/xlink">
    <!-- Generator: Sketch 40 (33762) - http://www.bohemiancoding.com/sketch -->
    <title>icn_captable</title>
    <desc>Created with Sketch.</desc>
    <defs></defs>
    <g id="Symbols" stroke="none" stroke-width="1" fill="none" fill-rule="evenodd">
        <g id="icn_captable">
            <g>
                <polygon id="Fill-42" fill="#FFAB24" points="2.98083312 8.66078589 7.07947866 8.66078589 7.07947866 4.12418376 2.98083312 4.12418376"></polygon>
                <polygon id="Fill-44" fill="#FFAB24" points="2.98083312 15.0120289 7.07947866 15.0120289 7.07947866 10.4754267 2.98083312 10.4754267"></polygon>
                <polygon id="Fill-45" fill="#FFAB24" points="2.98083312 21.3632719 7.07947866 21.3632719 7.07947866 16.8266697 2.98083312 16.8266697"></polygon>
                <polygon id="Fill-46" fill="#D1DBE3" points="8.44569384 8.20712567 17.553795 8.20712567 17.553795 6.84614503 8.44569384 6.84614503"></polygon>
                <polygon id="Fill-47" fill="#D1DBE3" points="8.44569384 5.48516439 17.553795 5.48516439 17.553795 4.12418376 8.44569384 4.12418376"></polygon>
                <polygon id="Fill-48" fill="#D1DBE3" points="8.44569384 14.5583687 17.553795 14.5583687 17.553795 13.197388 8.44569384 13.197388"></polygon>
                <polygon id="Fill-49" fill="#D1DBE3" points="8.44569384 11.8364074 17.553795 11.8364074 17.553795 10.4754267 8.44569384 10.4754267"></polygon>
                <path d="M12.0889343,19.548631 L8.44569384,19.548631 L8.44569384,20.9096116 L11.8559408,20.9096116 C11.9100899,20.4441344 11.9842588,19.9886126 12.0889343,19.548631" id="Fill-50" fill="#D1DBE3"></path>
                <path d="M2.14210622,25.1615248 C1.58541816,25.1615248 1.13390811,24.7032998 1.13390811,24.1392096 L1.13390811,2.17268992 C1.13390811,1.60918898 1.58541816,1.14958905 2.14210622,1.14958905 L18.8063328,1.14958905 C19.3632146,1.14958905 19.814531,1.60918898 19.814531,2.17268992 L19.814531,15.5101227 C20.2023144,15.5114976 20.5784759,15.5507797 20.9486328,15.6083279 L20.9486328,2.17268992 C20.9486328,0.97242703 19.9898276,0 18.8063328,0 L2.14210622,0 C0.958998815,0 0,0.97242703 0,2.17268992 L0,24.1392096 C0,25.3384905 0.958998815,26.3122924 2.14210622,26.3122924 L12.9359275,26.3122924 C12.7693472,25.9430411 12.6345334,25.5586663 12.527031,25.1615248 L2.14210622,25.1615248 Z" id="Fill-51" fill="#09ACF8"></path>
                <path d="M8.44569384,16.8266697 L8.44569384,18.1876504 L13.1150672,18.1876504 C13.3469628,17.7086026 13.6115697,17.2518701 13.9105546,16.8266697 L8.44569384,16.8266697 Z" id="Fill-52" fill="#D1DBE3"></path>
                <path d="M21.161528,27.3249699 L21.161528,28.4860749 L20.0401522,28.4860749 L20.0401522,27.4060012 C19.2733405,27.3703888 18.5294986,27.1647997 18.0946265,26.914308 L18.437792,25.5818501 C18.9187764,25.8423203 19.5940543,26.0828336 20.3377235,26.0828336 C20.9889954,26.0828336 21.4356114,25.8311376 21.4356114,25.3755729 C21.4356114,24.9427177 21.0694761,24.6683122 20.2230472,24.3834123 C18.998739,23.9737825 18.1635359,23.4034665 18.1635359,22.2994792 C18.1635359,21.2944154 18.8723187,20.5080158 20.0966269,20.269567 L20.0966269,19.1860525 L21.2192116,19.1860525 L21.2192116,20.1880195 C21.9858506,20.2229438 22.5003398,20.3832861 22.8775283,20.5661657 L22.5461068,21.8537208 C22.2485355,21.728475 21.7221296,21.4650801 20.8979797,21.4650801 C20.1550013,21.4650801 19.9133865,21.7850765 19.9133865,22.1049008 C19.9133865,22.4794341 20.3144083,22.7201195 21.2872575,23.0841583 C22.6492119,23.5631206 23.1980694,24.1905543 23.1980694,25.2159188 C23.1980694,26.2314771 22.47737,27.0966715 21.161528,27.3249699 M20.6981596,18.1464085 C17.5436964,18.1464085 14.9869665,20.6936481 14.9869665,23.8352895 C14.9869665,26.977275 17.5436964,29.5257189 20.6981596,29.5257189 C23.8531408,29.5257189 26.4100434,26.977275 26.4100434,23.8352895 C26.4100434,20.6936481 23.8531408,18.1464085 20.6981596,18.1464085" id="Fill-53" fill="#FF8730"></path>
            </g>
        </g>
    </g>
</svg>