<?xml version="1.0" encoding="UTF-8" standalone="no"?>
<svg width="26px" height="30px" viewBox="0 0 26 30" version="1.1" xmlns="http://www.w3.org/2000/svg" xmlns:xlink="http://www.w3.org/1999/xlink">
    <!-- Generator: Sketch 40 (33762) - http://www.bohemiancoding.com/sketch -->
    <title>icn_sign</title>
    <desc>Created with Sketch.</desc>
    <defs></defs>
    <g id="Symbols" stroke="none" stroke-width="1" fill="none" fill-rule="evenodd">
        <g id="icn_sign">
            <path d="M7.45960333,13.4669339 C7.61874233,13.8276571 7.75798687,14.1883749 7.87734112,14.5490982 C7.99669537,14.9098214 8.08620971,15.2605193 8.14588684,15.6012024 C8.20556396,15.9418855 8.23540208,16.2825634 8.23540208,16.6232465 C8.23540208,16.9639296 8.22545604,17.2845676 8.20556366,17.5851703 C8.18567129,17.885773 8.15583317,18.1763513 8.11604842,18.4569138 C8.07626367,18.7374764 8.03647952,18.9779549 7.99669477,19.1783567 C7.95691002,19.3787585 7.91712587,19.5591174 7.87734112,19.7194389 C7.83755637,19.8797603 7.79777221,19.9999996 7.75798746,20.0801603 L7.69831064,20.260521 L7.69831064,20.3807615 L7.81766429,20.501002 C11.9154935,20.5410824 16.450887,22.3446715 21.4239808,25.9118236 L13.0095482,15.4509018 C12.731055,15.0901786 12.750947,14.7895804 13.069225,14.5490982 C13.387503,14.308616 13.6858842,14.3286559 13.9643774,14.6092184 L22.4384868,25.1302605 C19.9718323,19.51901 19.1363651,14.6693591 19.9320601,10.5811623 C19.9320601,10.5010016 19.912168,10.4609218 19.8723833,10.4609218 C19.8723833,10.4208415 19.8325991,10.4008016 19.7530296,10.4008016 C19.3949669,10.4809623 18.9374491,10.5210421 18.3804626,10.5210421 C16.3116556,10.5210421 14.600937,9.93988557 13.2482555,8.77755511 L7.45960333,13.4669339 Z M25.4223282,25.8517034 C24.9449112,25.250498 24.3083647,24.9498998 23.5126697,24.9498998 C23.1148222,24.9498998 22.7567648,25.0100194 22.4384868,25.1302605 L22.4384868,25.1903808 C22.1202088,25.2705415 21.8616118,25.4709403 21.6626881,25.7915832 L21.6030112,25.8517034 L21.5433344,25.9118236 C21.5433344,25.951904 21.5234423,25.9719439 21.4836576,25.9719439 C20.6879626,26.9739529 20.7078547,27.9959868 21.5433344,29.0380762 C22.0605362,29.6793619 22.6970826,30 23.4529929,30 C24.1293336,30 24.6664197,29.7996012 25.0642672,29.3987976 C25.6212537,28.9579136 25.9295809,28.396797 25.989258,27.7154309 C26.0489351,27.0340647 25.8599604,26.4128285 25.4223282,25.8517034 L25.4223282,25.8517034 Z M3.99834739,11.6032064 L4.05802421,11.6032064 C4.09780896,11.6032064 4.11770104,11.5831665 4.11770104,11.5430862 L5.01285344,10.8817635 C5.56983994,11.2825671 6.14671016,11.803604 6.74348141,12.4448898 L12.3531031,7.8757515 C11.9552556,7.35470681 11.5574141,6.6733509 11.1595666,5.83166333 L12.054719,5.0501002 C12.0945037,5.0501002 12.1243418,5.03006032 12.1442342,4.98997996 C12.1641266,4.9498996 12.1541806,4.90981984 12.1143958,4.86973948 L8.23540208,0.0601202405 C8.23540208,0.0200398798 8.19561792,0 8.11604842,0 C8.07626367,0 8.03647952,0.0200398798 7.99669477,0.0601202405 L0.0596768266,6.55310621 L0,6.61322645 L0.0596768266,6.73346693 L3.93867056,11.5430862 L3.99834739,11.6032064 Z" fill="#50D2C2"></path>
            <rect id="Rectangle" fill="#09ACF8" x="2" y="26" width="15" height="4" rx="2"></rect>
        </g>
    </g>
</svg>