<?xml version="1.0" encoding="UTF-8" standalone="no"?>
<svg width="27px" height="24px" viewBox="0 0 27 24" version="1.1" xmlns="http://www.w3.org/2000/svg" xmlns:xlink="http://www.w3.org/1999/xlink">
    <!-- Generator: Sketch 40 (33762) - http://www.bohemiancoding.com/sketch -->
    <title>icn_clients</title>
    <desc>Created with Sketch.</desc>
    <defs></defs>
    <g id="Symbols" stroke="none" stroke-width="1" fill="none" fill-rule="evenodd">
        <g id="icn_clients">
            <g>
                <path d="M26.395122,17.9410874 C26.395122,17.9410874 26.4066605,18.7072838 26.2790674,19.0182627 C26.2790674,19.0182627 25.5927739,19.4493595 24.3532984,19.8 L20.5962427,16.1626311 C20.5643027,16.1318732 20.5303559,16.1032197 20.4947368,16.0771564 C21.357955,14.7089139 21.7892296,13.1188904 21.7241788,11.4901767 C21.6706667,10.1494544 21.282369,8.86053498 20.6037679,7.72038682 C20.8392214,7.71569219 21.0628019,7.69982757 21.2388904,7.66453689 C21.3256804,7.64721531 21.4138083,7.6402543 21.5009328,7.64252068 C22.1116404,7.65757588 22.6969297,8.11797363 22.800275,8.562183 C22.800275,8.562183 22.8093052,8.56153546 22.8256933,8.56153546 C23.0188388,8.56137358 24.2318927,8.65089536 23.6496134,11.0114861 C23.6496134,11.0114861 23.6491118,11.0147238 23.6481084,11.0203897 C23.6763695,11.0144 23.7058012,11.0108386 23.7355673,11.0103529 C23.9439303,11.0076009 24.1604874,11.1740175 23.9308867,12.0263361 C23.7474404,12.7072197 23.5777065,12.8828637 23.4516184,12.8822162 C23.409812,12.8822162 23.3723535,12.8624664 23.3414168,12.8354318 C23.2644931,13.3008479 23.07904,13.8544908 22.6547888,14.2954625 L22.6771971,14.2940055 C22.6771971,14.2940055 22.7118127,14.8361546 22.8986036,15.1438959 C22.9067977,15.1477811 24.0511219,15.7019096 25.3850798,16.0300482 C26.3832489,16.2753023 26.4309082,17.3906822 26.3906069,17.9418968 L26.395122,17.9410874 Z" id="Fill-1" fill="#09ACF8"></path>
                <path d="M19.0378513,6.19402562 C19.0578128,6.21350682 19.077109,6.23331272 19.0967378,6.25263158 C19.3018427,5.90748954 19.4094686,5.53621021 19.4631985,5.20811422 C19.4943052,5.23522556 19.531234,5.25470677 19.5728206,5.25503146 C19.6982456,5.25551849 19.867087,5.07953825 20.0495687,4.39672196 C20.2776293,3.54198402 20.0625437,3.37541971 19.8552764,3.37769251 C19.8256668,3.3780172 19.7963898,3.38191344 19.7682773,3.3877578 C19.7692754,3.38223813 19.7697745,3.37899126 19.7697745,3.37899126 C20.3486591,1.01169997 19.1421503,0.921761734 18.9501869,0.92208642 C18.9338849,0.92208642 18.9252349,0.922735794 18.9252349,0.922735794 C18.8227657,0.476940849 18.2405541,0.015398596 17.6327252,0.000463004258 C17.5460588,-0.00197214657 17.4583944,0.00517096252 17.3720607,0.0225417051 C17.1558107,0.0662120766 16.8675328,0.0809853249 16.5732664,0.0800112646 C15.9261798,0.0785501741 15.2513134,0.0040345588 15.2513134,0.0040345588 C15.2313518,0.298525465 15.4898538,0.502753448 15.4898538,0.502753448 C14.0171911,1.37875837 14.6295114,3.37071175 14.6295114,3.37071175 L14.6290123,3.38921889 C14.5875921,3.37720548 14.5797739,3.3780172 14.5321988,3.37769251 C14.3791604,3.37655611 14.2226286,3.4689295 14.2440873,3.86309924 C16.0531019,4.10596495 17.7243819,4.91216222 19.0378513,6.19402562" id="Fill-3" fill="#09ACF8"></path>
                <path d="M6.12940203,5.33270056 C6.16449924,5.33352423 6.19610336,5.32018077 6.22371538,5.30008321 C6.29158107,5.71208319 6.44244916,6.18948262 6.75898939,6.6 C6.85646315,6.49292283 6.95709732,6.38782248 7.06072557,6.2850284 C8.27748423,5.07983371 9.80063652,4.28943949 11.4563598,3.98402247 C11.4991085,3.52770901 11.3326047,3.42540913 11.1709247,3.42755068 C11.1413166,3.42788014 11.1120412,3.43166903 11.0839302,3.43776419 C11.0849282,3.4319985 11.0854272,3.42870381 11.0854272,3.42870381 C11.6642816,1.02671588 10.4576696,0.93545319 10.2658825,0.935617924 C10.2495814,0.935617924 10.2407655,0.936276861 10.2407655,0.936276861 C10.1384679,0.483917018 9.55628677,0.0157427022 8.94848962,0.000422430736 C8.86182779,-0.00188384668 8.77416794,0.00519971968 8.68783879,0.0229910026 C8.47143373,0.0671397418 8.18333722,0.082130545 7.88908622,0.0813068745 C7.24203343,0.0798242676 6.56720227,0.00404658097 6.56720227,0.00404658097 C6.54724178,0.302874241 6.80573022,0.510274474 6.80573022,0.510274474 C5.33314452,1.39917969 5.94543278,3.42030238 5.94543278,3.42030238 L5.94476743,3.4392468 C5.90351573,3.42689174 5.89553153,3.42788014 5.84812535,3.42755068 C5.6415342,3.42606807 5.42828956,3.59656786 5.65567289,4.4614219 C5.83664807,5.14902204 6.00431625,5.33022955 6.12940203,5.33270056" id="Fill-5" fill="#09ACF8"></path>
                <path d="M4.52469634,11.89253 C4.52469634,10.3758047 4.91640286,8.92083153 5.64972514,7.64847302 C5.62218328,7.64583122 5.59464141,7.64318941 5.56693848,7.64252896 C5.48302438,7.64021739 5.3981439,7.64731723 5.31455192,7.66498429 C5.10500826,7.70939961 4.82604622,7.72442487 4.54112482,7.72343419 C3.91458767,7.72194817 3.26099184,7.64616144 3.26099184,7.64616144 C3.24182528,7.94567589 3.49211802,8.15355279 3.49211802,8.15355279 C2.06622254,9.04433583 2.65909741,11.0702687 2.65909741,11.0702687 L2.65845316,11.0892567 C2.61834834,11.0768732 2.61077835,11.0778639 2.56487524,11.0775337 C2.36483433,11.0760477 2.15835088,11.2469393 2.37852473,12.113781 C2.55376186,12.8026312 2.71579177,12.9842552 2.83723368,12.9867319 C2.87105702,12.9875575 2.90182016,12.9741833 2.92839564,12.9540396 C3.00361231,13.4251061 3.18271496,13.9817011 3.58601806,14.4266798 C3.58601806,14.4266798 3.54832919,15.0513012 3.33685277,15.3496598 C3.33685277,15.3496598 2.26706876,15.8615092 0.977755161,16.1973485 C0.0168501077,16.4478244 -0.0296972541,17.583965 0.00895799445,18.1465039 C0.00895799445,18.1465039 -0.0021553895,18.9279824 0.120736088,19.2451639 C0.120736088,19.2451639 1.99068374,20.4896183 5.12353057,20.4947368 C5.11612165,20.0634625 5.15509902,19.523709 5.32534318,19.0070714 C5.45805953,18.6038661 5.65552343,18.2582852 5.91241977,17.9797401 C6.11068898,17.7647634 6.34084877,17.5932113 6.6,17.4652489 C5.25866288,15.9305263 4.52469634,13.9693176 4.52469634,11.89253" id="Fill-7" fill="#09ACF8" opacity="0.6"></path>
                <path d="M15.0775503,16.6001227 C15.0253072,16.3498925 15.0119115,16.1408823 15.0119115,16.1408823 L14.984283,16.1426605 C15.5057094,15.6022731 15.7337707,14.9240004 15.8280428,14.3537083 C15.8663879,14.3865227 15.9121006,14.4106082 15.9636739,14.4109315 C16.1187288,14.4114164 16.3273664,14.1965869 16.5527486,13.3620012 C16.8347274,12.3174355 16.5688234,12.1137597 16.3127986,12.1169927 C16.2762954,12.117316 16.2397922,12.1220037 16.2054658,12.1289546 C16.9224691,9.22560494 15.4318658,9.11584633 15.1949299,9.11600797 C15.1748364,9.11600797 15.1639524,9.11697786 15.1639524,9.11697786 C15.0371959,8.57238764 14.3181832,8.00807644 13.5673559,7.98997192 C13.4600231,7.98722392 13.3520205,7.99579123 13.2453574,8.01696704 C12.9781138,8.0699874 12.6219564,8.08793027 12.2587663,8.08744533 C11.4597145,8.08566721 10.6254991,7.9946597 10.6254991,7.9946597 C10.6008846,8.35448689 10.9205388,8.60439383 10.9205388,8.60439383 C9.10140669,9.67466152 9.8575923,12.1087486 9.8575923,12.1087486 C9.80568408,12.1166694 9.79630711,12.1174776 9.7375336,12.117316 C9.48234607,12.1155378 9.21878625,12.3206684 9.49976045,13.3623245 C9.72296581,14.1896361 9.93026382,14.4080218 10.0848164,14.4112547 C10.1280174,14.4123863 10.1671997,14.3962215 10.2013587,14.3718128 C10.2974726,14.9375788 10.5255339,15.6066375 11.0402626,16.1408823 C11.0402626,16.1408823 11.0253599,16.3736546 10.9655817,16.6419894 C11.592834,16.8904415 12.2713247,17.0210526 12.9707462,17.0210526 C13.707843,17.0210526 14.4213299,16.875085 15.0775503,16.6001227 Z" id="Fill-9" fill="#09ACF8"></path>
                <path d="M17.3935985,19.1390045 C17.3619135,19.1074027 17.3328552,19.073836 17.3062595,19.0387957 C16.0112784,19.8255652 14.5130535,20.2493237 12.9785469,20.2493237 C11.0544624,20.2493237 9.23068635,19.601733 7.75643047,18.4105263 C6.61954607,18.7488126 6.56372792,20.0914786 6.61117335,20.7629753 C6.61117335,20.7629753 6.59705464,21.7143032 6.75071872,22.0999104 C6.75071872,22.0999104 9.09918536,23.6210526 13.0327233,23.6210526 L13.0406035,23.5323057 L13.0384693,23.6210526 C16.9720073,23.6210526 19.3206381,22.0999104 19.3206381,22.0999104 C19.4058428,21.8852475 19.4394979,21.4957107 19.4526316,21.1919734 L17.3935985,19.1390045 Z" id="Fill-11" fill="#09ACF8" opacity="0.6"></path>
                <path d="M17.5012535,16.3798597 C16.2780978,17.559316 14.6749781,18.1489634 13.0721935,18.1489634 C11.4692414,18.1489634 9.86645682,17.559316 8.64330115,16.3798597 C6.1974924,14.0212702 6.1974924,10.1969627 8.64330115,7.83837318 C9.86645682,6.65891687 11.4695765,6.06959259 13.0723611,6.06959259 C14.6753132,6.06959259 16.2780978,6.65891687 17.5012535,7.83837318 C19.9472298,10.1969627 19.9472298,14.0209471 17.5012535,16.3798597 M24.7064965,21.9096213 L24.7048212,21.9081674 L20.3478003,17.7068086 L19.9723596,17.3447813 L19.8458725,17.2228132 L19.7347984,17.1157073 L19.4417838,17.3982534 L18.8095157,16.7885742 C21.3124531,13.9414659 21.1712231,9.67144956 18.3858257,6.98556537 C16.9182399,5.5705732 14.995133,4.86315789 13.0721935,4.86315789 C11.1492541,4.86315789 9.22597961,5.57073475 7.75889644,6.98556537 C4.8242275,9.8152266 4.8242275,14.4030063 7.75889644,17.2326675 C9.22597961,18.6474981 11.1492541,19.3547519 13.0718585,19.3547519 C14.7997899,19.3547519 16.5275539,18.7835209 17.925111,17.641382 L18.5573791,18.2510613 L18.2643646,18.5336074 L18.2652022,18.5344151 L18.5015908,18.7625198 L18.8770314,19.1245471 L23.2355601,23.3273598 C23.6418267,23.7189503 24.2998948,23.7189503 24.7061614,23.3273598 C25.1119254,22.9359308 25.1119254,22.3010502 24.7064965,21.9096213" id="Fill-13" fill="#FFAB24"></path>
            </g>
        </g>
    </g>
</svg>