<?xml version="1.0" encoding="UTF-8" standalone="no"?>
<svg width="30px" height="29px" viewBox="0 0 30 29" version="1.1" xmlns="http://www.w3.org/2000/svg" xmlns:xlink="http://www.w3.org/1999/xlink">
    <!-- Generator: Sketch 40 (33762) - http://www.bohemiancoding.com/sketch -->
    <title>icn_compensation</title>
    <desc>Created with Sketch.</desc>
    <defs></defs>
    <g id="Symbols" stroke="none" stroke-width="1" fill="none" fill-rule="evenodd">
        <g id="icn_compensation">
            <g id="Group-14">
                <path d="M18.8135593,10.126334 C18.8135593,10.0694444 18.8135593,10.0694444 18.8135593,10.126334 L18.8135593,10.126334 L18.8135593,10.126334 L18.8135593,10.0125549 L19.1525424,4.83560891 L19.1525424,4.7787194 L19.1525424,4.7787194 L19.1525424,4.7787194 C19.2090395,4.38049278 19.5480226,4.03915568 20,4.03915568 C20.4519774,4.03915568 20.7909605,4.38049278 20.8474576,4.83560891 L20.8474576,4.83560891 L21.1299435,9.55743879 C21.1299435,9.67121783 21.1864407,9.84188638 21.299435,9.95566541 L23.3898305,12.4588041 C23.3898305,12.4588041 23.3898305,12.4588041 23.3898305,12.5156937 L23.3898305,12.5156937 L23.3898305,12.5156937 C23.6158192,12.8570308 23.6158192,13.3121469 23.3333333,13.653484 C22.9943503,13.9948211 22.5423729,13.9948211 22.2033898,13.7103735 L22.2033898,13.7103735 L19.3220339,11.2641243 C19.2655367,11.2072348 19.2090395,11.2072348 19.1525424,11.1503453 C18.9265537,10.7521186 18.8135593,10.4107815 18.8135593,10.126334 L18.8135593,10.126334 L18.8135593,10.126334 Z M10.7909605,6.71296296 C11.6384181,6.826742 12.4858757,6.99741055 13.2768362,7.28185813 C14.3502825,4.49427181 17.0056497,2.56002825 20.1129944,2.56002825 C24.1242938,2.56002825 27.4011299,5.85962021 27.4011299,9.89877589 C27.4011299,13.5965945 24.6892655,16.6117389 21.2429379,17.180634 C21.299435,17.6357502 21.3559322,18.1477558 21.3559322,18.6597615 C21.3559322,19.0579881 21.3559322,19.3993252 21.299435,19.7975518 C26.1581921,19.2286566 30,15.0188324 30,9.95566541 C29.9435028,4.4373823 25.5367232,0 20.1129944,0 C15.819209,0 12.0903955,2.78758632 10.7909605,6.71296296 Z" id="Shape" fill="#09ACF8"></path>
                <path d="M9.37853107,28.1034212 C4.18079096,28.1034212 0,23.893597 0,18.6597615 C0,13.4259259 4.18079096,9.21610169 9.37853107,9.21610169 C14.5762712,9.21610169 18.7570621,13.4259259 18.7570621,18.6597615 C18.7570621,23.893597 14.5762712,28.1034212 9.37853107,28.1034212 Z M9.26553672,25.0882768 L9.71751412,25.0882768 C9.94350282,25.0882768 10.1129944,24.9744978 10.1129944,24.6900502 L10.1129944,23.8367075 C10.1129944,23.5522599 10.2259887,23.4384809 10.5084746,23.3247018 C11.1299435,23.1540333 11.6384181,22.8126962 12.0903955,22.3006905 C13.220339,20.9353421 12.7683616,18.8873195 11.1864407,17.9770873 C10.6779661,17.6926397 10.1694915,17.4650816 9.60451977,17.2375235 C9.3220339,17.1237445 8.98305085,16.953076 8.75706215,16.7255179 C8.24858757,16.3272913 8.36158192,15.6446171 8.92655367,15.3601695 C9.0960452,15.30328 9.26553672,15.2463905 9.43502825,15.2463905 L9.66101695,15.2463905 C10.2824859,15.2463905 10.8474576,15.3601695 11.4124294,15.6446171 C11.5254237,15.7015066 11.5819209,15.7015066 11.6949153,15.7015066 C11.8079096,15.7015066 11.8644068,15.5877276 11.9774011,15.417059 C12.0903955,15.0757219 12.2033898,14.7343848 12.259887,14.3930477 C12.3163842,14.1654896 12.259887,13.9948211 12.0338983,13.8810421 C11.6384181,13.7103735 11.2429379,13.5965945 10.7909605,13.4828154 C10.2259887,13.3690364 10.2259887,13.3690364 10.2259887,12.8001412 C10.2259887,12.003688 10.2259887,12.003688 9.49152542,12.003688 L9.37853107,12.003688 L9.15254237,12.003688 L9.03954802,12.003688 C8.6440678,12.003688 8.58757062,12.0605775 8.58757062,12.4588041 L8.58757062,12.9708098 C8.58757062,13.4828154 8.58757062,13.4828154 8.07909605,13.653484 C6.89265537,14.1086001 6.21468927,14.9050534 6.10169492,16.1566227 C6.04519774,17.2944131 6.61016949,18.0339768 7.57062147,18.6028719 C8.13559322,18.944209 8.75706215,19.1717671 9.37853107,19.3993252 C9.60451977,19.5131042 9.83050847,19.6268832 10.0564972,19.7975518 C10.6214689,20.2526679 10.5084746,21.1060107 9.83050847,21.3904583 C9.5480226,21.5042373 9.26553672,21.5611268 8.98305085,21.5611268 L8.6440678,21.5611268 C8.02259887,21.5042373 7.45762712,21.3335687 6.89265537,21.0491212 C6.77966102,20.9922316 6.66666667,20.9353421 6.61016949,20.9353421 C6.49717514,20.9353421 6.44067797,21.0491212 6.32768362,21.2766792 C6.21468927,21.5611268 6.15819209,21.9024639 6.04519774,22.1869115 C5.93220339,22.5851381 5.98870056,22.6989171 6.38418079,22.8695857 C6.89265537,23.0971438 7.40112994,23.2678123 7.96610169,23.3247018 C8.4180791,23.3815913 8.4180791,23.4384809 8.4180791,23.8367075 L8.4180791,24.4624922 C8.4180791,24.7469397 8.53107345,24.8607188 8.81355932,24.8607188 C8.98305085,25.0882768 9.15254237,25.0882768 9.26553672,25.0882768 Z" id="Combined-Shape" fill="#FF8730"></path>
            </g>
        </g>
    </g>
</svg>