<?xml version="1.0" encoding="UTF-8" standalone="no"?>
<svg width="140px" height="156px" viewBox="0 0 140 156" version="1.1" xmlns="http://www.w3.org/2000/svg" xmlns:xlink="http://www.w3.org/1999/xlink">
    <!-- Generator: Sketch 40 (33762) - http://www.bohemiancoding.com/sketch -->
    <title>icn_experts</title>
    <desc>Created with Sketch.</desc>
    <defs>
        <path d="M64,127.848649 C99.346224,127.848649 128,99.2287538 128,63.9243243 C128,28.6198949 99.346224,0 64,0 C28.653776,0 0,28.6198949 0,63.9243243 C0,99.2287538 28.653776,127.848649 64,127.848649 Z" id="path-1"></path>
        <mask id="mask-2" maskContentUnits="userSpaceOnUse" maskUnits="objectBoundingBox" x="0" y="0" width="128" height="127.848649" fill="white">
            <use xlink:href="#path-1"></use>
        </mask>
        <path d="M64,127.848649 C99.346224,127.848649 128,99.2287538 128,63.9243243 C128,28.6198949 99.346224,0 64,0 C28.653776,0 0,28.6198949 0,63.9243243 C0,99.2287538 28.653776,127.848649 64,127.848649 Z" id="path-3"></path>
        <mask id="mask-4" maskContentUnits="userSpaceOnUse" maskUnits="objectBoundingBox" x="-6" y="-6" width="140" height="139.848649">
            <rect x="-6" y="-6" width="140" height="139.848649" fill="white"></rect>
            <use xlink:href="#path-3" fill="black"></use>
        </mask>
        <mask id="mask-6" maskContentUnits="userSpaceOnUse" maskUnits="objectBoundingBox" x="-6" y="-6" width="140" height="139.848649">
            <rect x="-6" y="-6" width="140" height="139.848649" fill="white"></rect>
            <use xlink:href="#path-3" fill="black"></use>
        </mask>
        <filter x="-50%" y="-50%" width="200%" height="200%" filterUnits="objectBoundingBox" id="filter-7">
            <feGaussianBlur stdDeviation="4" in="SourceGraphic"></feGaussianBlur>
        </filter>
    </defs>
    <g id="DESIGNS" stroke="none" stroke-width="1" fill="none" fill-rule="evenodd">
        <g id="EquityX-|-Landing-page" transform="translate(-874.000000, -1134.000000)">
            <g id="benefits" transform="translate(61.000000, 1085.000000)">
                <g id="service-provider" transform="translate(677.000000, 55.000000)">
                    <g id="icn_experts" transform="translate(142.000000, 0.000000)">
                        <g id="travel-ico-copy">
                            <use id="Oval-1" stroke-opacity="0.400000006" stroke="#49BCB7" mask="url(#mask-2)" stroke-width="4" fill-opacity="0.600000024" fill="#50D2C2" xlink:href="#path-1"></use>
                            <g id="Rectangle-3">
                                <mask id="mask-5" fill="white">
                                    <use xlink:href="#path-3"></use>
                                </mask>
                                <g id="Mask" stroke="#FFFFFF" mask="url(#mask-4)" stroke-width="12">
                                    <use mask="url(#mask-6)" xlink:href="#path-3"></use>
                                </g>
                                <path d="M62.6901278,44.4302764 C62.6901278,44.4302764 75.7017771,62.7998172 88.6335407,69.2559477 C97.5490789,73.7069939 108.951758,69.255948 113.818296,69.255948 C116.977025,69.255948 124.611804,67.9550312 129.491406,69.255948 C132.896694,70.1638081 134.215579,73.5972005 134.880036,74.3089005 C136.496627,76.0404299 155.526997,59.3943827 155.526997,59.3943827 L143.044508,161.137444 L48.0450932,161.13744 L62.6901278,44.4302764 Z" fill-opacity="0.6" fill="#2FAA83" style="mix-blend-mode: multiply;" opacity="0.3" mask="url(#mask-5)" transform="translate(101.786045, 102.783860) rotate(-47.000000) translate(-101.786045, -102.783860) "></path>
                            </g>
                            <ellipse id="Oval-2" fill="#8AA5B3" opacity="0.3" style="mix-blend-mode: multiply;" filter="url(#filter-7)" cx="64" cy="137.676326" rx="47.6975309" ry="2.82367415"></ellipse>
                        </g>
                        <g id="icn_expert" transform="translate(31.000000, 26.000000)">
                            <path d="M46.1281103,43.7499813 C45.2785128,43.539549 44.4513353,43.3361311 43.6276978,43.1256987 L42.7627604,42.9152664 C42.5975609,42.8766871 42.4276414,42.8708417 42.230582,42.8638273 C42.1078624,42.8591511 41.9698028,42.8544748 41.8069633,42.841615 L41.5992839,42.994763 C41.5509041,43.1783068 41.5037042,43.3618506 41.4458844,43.5453943 C41.2995648,44.0878422 41.1532452,44.6291209 41.0081057,45.1715688 C40.4499674,47.2536799 39.8717691,49.4071043 39.2251311,51.4927227 C38.256354,54.5954308 37.1495173,57.7156749 36.0769005,60.7377172 C36.0651006,60.7868181 36.0544806,60.8113686 36.0415006,60.8429334 C35.9919408,60.9832216 35.935301,61.1211717 35.8715811,61.2579528 C35.7783614,60.5763858 35.6768817,59.8211674 35.5718621,59.0332152 C35.4751023,58.3048855 35.3736226,57.5484981 35.272143,56.7991251 C34.8237443,53.3679087 34.4496854,50.4031508 34.4131055,50.032556 L34.4485054,49.9518903 C34.597185,49.6081841 34.7376046,49.283183 34.8910041,48.9605201 C34.920504,48.8915451 34.933484,48.8576421 34.9511839,48.8260772 L35.0267037,48.6483788 C35.0939635,48.4882164 35.1624033,48.3233777 35.2332031,48.1760751 C35.272143,48.1199598 35.3040029,48.0603373 35.3335028,48.0030529 C35.3488427,47.9738262 35.3653627,47.9434304 35.3877826,47.902513 L35.4467824,47.7844371 C35.581302,47.5213967 35.7335216,47.2232842 35.7335216,46.8561966 C35.7335216,46.5475625 35.6237819,46.2693242 35.5352822,46.044863 L35.4491424,45.8472904 C35.4267225,45.7864988 35.4172825,45.7584412 35.3936826,45.7140166 C35.3700827,45.6450415 35.3287828,45.5573614 35.255623,45.4229185 C35.2225831,45.3738176 35.1848232,45.3153642 35.1848232,45.3153642 C35.1199234,45.2031336 35.0267037,45.1002556 34.920504,45.0277733 C34.7553045,44.9155427 34.592465,44.8816397 34.4827253,44.8582584 L34.247906,44.8535821 C34.1358064,44.7974668 34.0237067,44.7974668 33.9871268,44.7974668 C33.6413879,44.7764236 32.7729105,44.7764236 31.6601738,44.7764236 C30.5615971,44.7764236 29.6931198,44.7764236 29.3591808,44.7974668 C29.3119809,44.7974668 29.1987012,44.7974668 29.0866016,44.8535821 L28.8919022,44.8535821 C28.7408626,44.8816397 28.5780231,44.9155427 28.4116436,45.0289424 C28.3066239,45.1014246 28.2134042,45.2031336 28.1485044,45.3153642 C28.1178245,45.3644651 28.0682646,45.4392855 28.0682646,45.4392855 C28.0033648,45.5596995 27.963245,45.6450415 27.939645,45.7140166 C27.9160451,45.7584412 27.9066051,45.7853298 27.8959852,45.8145565 C27.8924452,45.823909 27.7980455,46.044863 27.7980455,46.044863 C27.7095457,46.2681551 27.5998061,46.5475625 27.5998061,46.8550276 C27.5998061,47.220946 27.7520256,47.5190585 27.8853652,47.783268 L27.951445,47.9142037 C27.9679649,47.9422614 27.9833049,47.9714881 27.9986449,48.0018839 C28.0293248,48.0591682 28.0600047,48.1187907 28.0989446,48.174906 C28.1697443,48.3210396 28.2381841,48.4870473 28.3054439,48.6472097 L28.3715237,48.8038649 C28.3998436,48.856473 28.4140036,48.8915451 28.4281636,48.924279 C28.5969031,49.283183 28.7361426,49.6081841 28.8848222,49.9518903 L28.9190421,50.031387 C28.8801022,50.4218559 28.5072233,53.3784304 28.0600047,56.797956 C27.958525,57.5496671 27.8570453,58.3048855 27.7602856,59.0332152 C27.6552659,59.8199984 27.5549662,60.5752167 27.4617465,61.2567837 C27.3980267,61.1176645 27.3390268,60.9773763 27.289467,60.8335809 C27.280027,60.8101995 27.2528871,60.7248575 27.2528871,60.7248575 C26.1826303,57.7098295 25.0769736,54.5919236 24.1093766,51.4927227 C23.4615585,49.4047662 22.8833603,47.2490037 22.3240419,45.1657234 C22.1789024,44.6256137 22.0337628,44.085504 21.8862633,43.5383799 C21.8308034,43.3595124 21.7812436,43.1689542 21.7328637,42.9854105 L21.6915638,42.8275862 C21.3647048,42.8544748 21.2266452,42.8603201 21.1039256,42.8638273 C20.9068662,42.8708417 20.7357667,42.8766871 20.5693872,42.9164354 L19.7032698,43.1280368 C18.8831723,43.3384692 18.0548148,43.5418871 17.2276373,43.744136 L6.2253504,47.8803007 C-0.323629878,50.050092 0.000869144545,54.462157 0.00322913744,54.4890455 L0.00322913744,62.9554404 C0.60030734,68.1414287 4.61937524,68.2068966 4.81407465,68.2068966 L58.5357729,68.2068966 C58.7080524,68.2068966 62.7330203,68.1472741 63.3300985,62.9776527 L63.3300985,54.5077506 C63.3324585,54.4598188 63.6569575,50.048923 57.1150572,47.8814698 L46.1281103,43.7499813 Z" id="Fill-3" fill="#FFFFFF"></path>
                            <path d="M48.2857123,20.8494311 C48.3291564,20.0487171 47.8717858,18.954328 47.0077293,18.7517521 C46.5708739,18.6486662 46.1726356,18.8308646 45.9602418,18.3609845 C45.8395636,18.0948789 46.0423031,17.3900588 46.0736794,17.1035757 C46.1533271,16.3939609 46.1943577,15.6352004 46.3693412,14.9411683 C46.6939658,13.6513954 46.8954985,12.3292583 46.9437698,10.9999291 C47.0934109,6.90645835 45.0575683,3.53578783 41.2899925,1.87083002 C40.8603778,1.68143957 40.4271428,1.50643321 39.9914942,1.3470096 C37.5622405,0.455196348 35.0400645,0.0224751324 32.4575493,0.000899005296 C31.9000157,-0.00389568961 31.3400685,0.0104883951 30.7765009,0.0440512595 C28.9723607,0.150733221 27.0475421,0.290978047 25.3954565,1.08450005 C25.231334,1.16361252 25.0744523,1.2511157 24.9223976,1.3470096 C24.3129723,1.73537989 23.80371,2.26279633 23.4006446,2.86453054 C22.9915452,3.47585414 22.8551787,3.8198735 22.2529941,4.29934299 C21.7220097,4.72367349 21.2453305,5.03532866 20.654007,5.29424219 C20.1290564,5.52558622 19.6596179,5.89357905 19.3748172,6.39702202 C18.7907343,7.42668275 18.5843745,8.67689944 18.5361032,9.84440766 C18.4745573,11.3067896 18.5397235,12.7703702 18.6435068,14.2291562 C18.6797103,14.7481819 18.7798733,15.2648103 18.8848634,15.7814386 C19.0453655,16.5713646 19.2155219,17.3624893 19.1841455,18.160806 C19.1732845,18.4089314 19.0719147,18.5491763 18.9186533,18.6390768 C18.870382,18.6510635 18.8196971,18.6582556 18.7641851,18.6654476 C18.4793844,18.6978118 18.187343,18.6858251 17.9073693,18.7529508 C17.0421061,18.9555267 16.5859422,20.0499158 16.6281796,20.8518285 C16.6305932,20.9021728 16.6330067,20.9549144 16.6378339,21.0052587 C16.6136982,21.3792449 16.6269728,21.7592245 16.6499017,22.128416 C16.6957594,22.8823818 16.8490208,23.6267582 16.9419431,24.3783266 C17.148303,26.0444831 17.9351254,27.6471099 19.5389397,28.4406319 C19.8744253,28.7055388 20.0952665,28.9776377 20.2171516,29.4499151 C21.1801642,33.1705984 23.0542979,36.1708787 26.0965973,38.2361936 C26.4719067,38.4891137 26.8653179,38.7300471 27.2780376,38.9577951 C27.770405,39.2071193 28.4293084,39.4995957 29.2837106,39.788476 C29.3307751,39.8088535 29.3790465,39.8304296 29.426111,39.8496084 C29.9462344,40.0701644 30.4615306,40.2271906 30.9913082,40.3266805 C31.4812621,40.4177797 31.9688023,40.4561373 32.4587561,40.4465479 C32.9487099,40.457336 33.4362502,40.4177797 33.9418921,40.3230845 C34.4559816,40.2271906 34.9724846,40.071363 35.4914012,39.8496084 C35.5384658,39.8304296 35.5867371,39.8088535 35.6338016,39.8004628 C36.486997,39.4995957 37.1471072,39.2071193 37.6418881,38.9565965 C38.0534011,38.7300471 38.4456055,38.4903124 38.8209149,38.2361936 C40.4018004,37.1693739 41.7352953,35.7669257 42.7393386,34.1523122 C43.2498077,33.3312207 43.6601139,32.4633809 44.0209419,31.5679716 C44.3709089,30.7013305 44.3672886,29.7411929 44.9779207,28.9920218 C45.4256371,28.4418305 46.0133403,28.0258908 46.5382908,27.5476199 C47.4844085,26.6869722 47.8235145,25.6177552 47.9755691,24.3783266 C48.0684914,23.6267582 48.2217528,22.8823818 48.2676105,22.128416 C48.2893326,21.7592245 48.3026072,21.3792449 48.2796784,21.0052587 C48.2796784,20.9525171 48.2832987,20.8997754 48.2857123,20.8494311" id="Fill-1" fill="#FFFFFF"></path>
                            <g id="Group-5" transform="translate(0.000000, 42.827586)"></g>
                            <path d="M49.5314248,7.13793103 C49.7438434,8.03999679 49.8506596,8.98841375 49.861584,9.97129699 L72.1145592,9.97129699 C72.5163339,9.97129699 72.8586313,10.203053 73.0127866,10.5382079 C73.0722638,10.6653766 73.1074646,10.8044302 73.1074646,10.9541802 L73.1074646,30.0366147 C73.1074646,30.1875533 73.0722638,30.3254184 73.0127866,30.4525871 C72.9181086,30.6486883 72.7530289,30.8222082 72.5515347,30.9149106 C72.4216559,30.9731468 72.2675007,31.019498 72.1145592,31.019498 L64.9687967,31.019498 C64.6969008,31.1122004 64.4614196,31.2857203 64.2125864,31.5281727 C63.4454517,32.3149547 62.6528267,33.0779669 61.8735538,33.8528639 C60.9874647,34.7204634 60.0904512,35.5880629 59.2043621,36.4544738 C59.0271443,36.6279937 58.8147256,36.7670474 58.4724282,37.0439661 L58.4724282,33.8516754 C58.4724282,33.0886633 58.4724282,32.3137662 58.4845664,31.5495656 C58.4845664,31.2952282 58.4615038,31.1217083 58.3304112,31.017121 L47.038237,31.017121 C46.943559,31.3641608 46.8379566,31.7682482 46.6607388,32.2198753 C46.4131193,32.7986711 46.1642861,33.3418122 45.9166667,33.8504869 L55.3783992,33.8504869 C55.6150942,33.9431893 55.6150942,34.1737569 55.6150942,34.7644376 C55.6150942,37.1580614 55.602956,39.5409887 55.6381568,41.9346125 C55.650295,42.235301 55.8857762,42.6750432 56.1455339,42.8022119 C56.3579525,42.9067993 56.7718654,42.6631583 57.0668238,42.5241047 C57.2440416,42.4432872 57.3617822,42.2578824 57.5037992,42.1188288 C60.1608528,39.5053339 62.8312584,36.9144204 65.4761737,34.2890406 C65.7007306,34.0691695 65.9374256,33.9301159 66.1971832,33.8492984 L72.1145592,33.8492984 C72.3512543,33.8492984 72.5758111,33.8267171 72.7991541,33.7910623 C74.6186714,33.4677924 75.9999994,31.9061133 75.9999994,30.0318607 L75.9999994,10.9541802 C76.0012132,8.84936014 74.2642357,7.13793103 72.1145592,7.13793103 L49.5314248,7.13793103 Z" id="Fill-6" fill="#FFFFFF"></path>
                        </g>
                        <circle id="Oval-17-Copy" fill="#ED6E5D" cx="96.5" cy="46.5" r="3.5"></circle>
                        <path d="M87.5,50 C89.4329966,50 91,48.4329966 91,46.5 C91,44.5670034 89.4329966,43 87.5,43 C85.5670034,43 84,44.5670034 84,46.5 C84,48.4329966 85.5670034,50 87.5,50 Z" id="Oval-17-Copy-2" fill="#FFC103"></path>
                    </g>
                </g>
            </g>
        </g>
    </g>
</svg>