<?xml version="1.0" encoding="UTF-8" standalone="no"?>
<svg width="30px" height="30px" viewBox="0 0 30 30" version="1.1" xmlns="http://www.w3.org/2000/svg" xmlns:xlink="http://www.w3.org/1999/xlink">
    <!-- Generator: Sketch 40 (33762) - http://www.bohemiancoding.com/sketch -->
    <title>icn_giving back</title>
    <desc>Created with Sketch.</desc>
    <defs></defs>
    <g id="Symbols" stroke="none" stroke-width="1" fill="none" fill-rule="evenodd">
        <g id="icn_giving-back">
            <g>
                <path d="M11.0846581,20.4384006 C11.2539648,20.8423937 11.2362027,20.9788216 10.9983041,21.1806292 C10.7930953,21.3546599 10.5735256,21.3627851 10.2844193,21.2033042 C10.2247085,21.1702365 10.1700995,21.1277208 10.113034,21.0897402 C8.82395992,20.2305464 7.8727434,19.088293 7.24445676,17.6737505 C7.1620709,17.4881933 7.06267879,17.3103835 6.97443522,17.1357859 C6.72482119,17.0569903 6.50241716,16.9866978 6.2870046,16.9186727 C6.07612704,17.185482 6.06989141,17.4294273 6.15926873,17.7183446 C6.42721173,18.5856636 6.90829978,19.3326162 7.44513056,20.0449893 C7.86839735,20.6067626 8.36025604,21.1099588 8.92750912,21.5317139 C9.26914589,21.7856739 9.61871891,22.0292413 9.940704,22.2601485 C10.0159094,22.8735074 9.98170797,22.9305728 9.44638885,23.1304908 C9.40179468,23.1140514 9.35285445,23.0989347 9.30637069,23.0779604 C9.25969797,23.056986 9.21340316,23.0335551 9.17107648,23.0050224 C7.3591545,21.7917206 5.99714243,20.200691 5.1526874,18.1833712 C5.02891965,17.8878403 4.87378482,17.6365257 4.60433015,17.462306 C4.57749806,17.4449219 4.54027326,17.4432212 4.46639053,17.4226248 C4.36699842,17.489705 4.24455338,17.5722798 4.14894044,17.6367146 C4.07430187,18.2897548 4.07335708,18.4407326 4.32599445,18.92919 C4.63985433,19.5366912 4.95806026,20.1472158 5.33711078,20.7144688 C5.87961032,21.5262341 6.49183549,22.2877364 7.27563489,22.8914584 C7.72176564,23.2349848 8.16090494,23.5875811 8.61875111,23.9484917 C8.67770613,24.1952713 8.70850635,24.4571676 8.44982231,24.6289308 C8.19057141,24.8010719 7.9258407,24.7262444 7.67698251,24.5760225 C7.66224375,24.5671414 7.64826083,24.5573156 7.63427791,24.5474898 C6.95686209,24.0767944 6.33953503,23.533917 5.76358987,22.9468232 C4.86943877,22.0354769 4.13646918,21.0067875 3.58433277,19.8520628 C3.52632255,19.7303736 3.45603003,19.6041494 3.36003917,19.5134493 C3.21813142,19.3796668 3.03351907,19.3086184 2.83851401,19.3906264 C2.64483167,19.4720674 2.57623977,19.6377839 2.56716977,19.8460161 C2.55602122,20.0971418 2.63859604,20.314066 2.74705815,20.532124 C3.3158229,21.6775897 4.08752896,22.6790692 4.94256567,23.6195151 C5.49753646,24.2300397 6.13583789,24.7481636 6.80437267,25.2300075 C7.13599464,25.4688509 7.14015172,25.4939823 7.01921836,25.9083681 C6.69043076,26.0434733 6.40661526,25.9021324 6.15870186,25.7197876 C5.73184486,25.4059277 5.31424682,25.0761953 4.91951275,24.7232211 C4.40573489,24.2634853 4.02328311,23.6911303 3.63572945,23.1255779 C3.52159859,22.9592945 3.38800501,22.8062382 3.25894643,22.6412775 C3.079247,22.6546936 2.93053675,22.6656532 2.76897733,22.6775575 C2.69377189,22.8334482 2.62858124,22.9685535 2.54676226,23.1378602 C2.67430917,23.3772705 2.7786142,23.6323643 2.933938,23.851367 C3.21076204,24.2413772 3.51763046,24.610035 3.81316138,24.986818 C4.79253271,26.2348882 6.03871328,27.1715549 7.4077168,27.9302228 C9.75703645,29.2323351 12.2919132,29.8562757 14.9826807,29.8577873 C15.7377584,29.8583542 16.4907576,29.836435 17.2348757,29.7264613 C18.2510939,29.5762393 19.2455819,29.3245468 20.198688,28.9305685 C20.2814518,28.8963671 20.3555235,28.8413802 20.4698433,28.7748668 C20.3317147,28.701362 20.2406368,28.6550672 20.1514484,28.6053711 C19.0904471,28.0124197 18.0103609,27.4495127 17.0735052,26.6602335 C16.2354748,25.954096 15.5659952,25.1357172 15.2024393,24.0749048 C14.9866488,23.4460513 14.7018885,22.8364715 14.4010668,22.2420085 C13.7894085,21.0324858 12.8688032,20.1082903 11.6872464,19.4452353 C10.8416576,18.9707608 10.0879026,18.3916034 9.54389138,17.5726577 C9.40387322,17.3621581 9.22077254,17.2249743 8.97323705,17.2021103 C8.71285239,17.3041479 8.59777673,17.4965075 8.65238571,17.7361067 C8.70812843,17.980241 8.78692408,18.239114 8.92864287,18.4399767 C9.49721866,19.2456953 10.2005218,19.9163086 11.0846581,20.4384006" id="Fill-4" fill="#E4495E"></path>
                <path d="M29.3457857,11.744274 C29.1859269,10.9173921 28.9204404,10.1243338 28.6099817,9.34469145 C28.577103,9.26211663 28.5196596,9.18936766 28.4537131,9.07844908 C28.0334697,9.84505326 27.6546081,10.5744326 27.2402224,11.2830266 C26.6283751,12.3287223 25.8861466,13.2617988 24.8631258,13.9348686 C24.2930384,14.1572726 23.7078343,14.3611587 23.1967018,14.6797426 C22.3643401,15.0249696 21.6007593,15.4924526 20.8872524,16.0449669 C20.8611761,16.0496909 20.8349109,16.0608394 20.8103463,16.0818138 C20.6644705,16.2067153 20.5329554,16.3421985 20.4131558,16.4858069 C20.2699253,16.6437761 20.1344422,16.8087367 20.0059505,16.980122 C19.9296113,17.0558943 19.8642317,17.1426262 19.803954,17.2327594 C19.603847,17.5313136 19.4203684,17.8410164 19.2367009,18.1499634 C18.9916218,18.5617037 18.736528,18.9607838 18.4253136,19.332465 C18.1020058,19.7186959 17.7184202,20.0249975 17.3459832,20.3511397 C17.0657579,20.5965966 17.0716157,20.7413387 17.3501403,21.0752282 C17.7208767,21.1646055 18.0379489,21.0739055 18.3484075,20.8329835 C19.0458529,20.2916178 19.6518425,19.6733459 20.1219709,18.923559 C20.2104034,18.7824071 20.3211331,18.6552381 20.4250602,18.5169206 C20.6227107,18.5301477 20.7899388,18.5411073 20.9248551,18.5499883 C21.2447617,18.846464 21.2562881,19.1385937 21.0499456,19.4554769 C21.0030839,19.5272811 20.9635916,19.6036203 20.9159741,19.6748576 C20.1599516,20.80823 19.2038221,21.7188205 17.9704907,22.3214088 C17.7705727,22.4191003 17.5706548,22.5177365 17.3748939,22.6237422 C17.0914563,22.7773654 16.8877591,22.997124 16.8255918,23.3319582 C16.9140244,23.6448733 17.1632605,23.6932467 17.433282,23.6603679 C17.6003212,23.6401494 17.7671715,23.5800606 17.9230622,23.5124135 C19.3347703,22.8994325 20.5013994,21.9725916 21.429563,20.7466296 C21.6464872,20.4601686 21.8356345,20.1515996 22.0638963,19.8749645 C22.3276822,19.554869 22.6842467,19.5826459 22.9213894,19.9252274 C22.9773211,20.0061016 22.9975397,20.1119183 23.0341976,20.2065865 C22.9588032,20.3564305 22.9089182,20.508542 22.8170844,20.6285306 C22.4119576,21.1581809 22.0306396,21.7127738 21.5741161,22.1955625 C20.6009804,23.2246299 19.4696866,24.0464099 18.1590712,24.6100728 C17.8478567,24.7438553 17.5253047,24.8908649 17.4415962,25.2634909 C17.4928039,25.6107964 17.7581015,25.6480212 18.0957701,25.7181248 C18.3788298,25.6107964 18.7416299,25.5046018 19.0764642,25.3413417 C20.9008574,24.4521036 22.3822912,23.1626515 23.5241667,21.4831894 C23.6377307,21.3163391 23.7683009,21.1608263 23.8688268,21.0293113 C24.4479843,20.9841503 24.5024043,21.0228867 24.6873945,21.6156492 C24.4952239,21.9102353 24.2970065,22.2499825 24.0643987,22.5640313 C23.40928,23.4485456 22.6392746,24.2225191 21.779136,24.9107056 C21.2013012,25.3730867 20.5690465,25.7470354 19.9292334,26.1107803 C19.685855,26.2492868 19.4740326,26.4108462 19.3614134,26.6631057 C19.5018095,27.1007333 19.6849102,27.2345158 20.0586699,27.1543975 C20.2240085,27.1190623 20.3912366,27.0602962 20.5386242,26.9780993 C21.574683,26.4008314 22.537426,25.7196364 23.4022885,24.9059816 C24.0655325,24.2816631 24.6448789,23.5836508 25.1582788,22.8321633 C25.2790233,22.6551093 25.3999566,22.4999744 25.6586407,22.4744651 C25.7259098,22.5088555 25.8143424,22.5540165 25.8787772,22.5868953 C25.9849718,22.8319743 25.9133566,23.0252788 25.8132086,23.2078126 C25.4564552,23.8585853 24.9925623,24.4381206 24.4655574,24.9475525 C24.0010977,25.3965176 23.4578423,25.766876 22.932538,26.1487609 C22.6706417,26.339042 22.5718164,26.5451956 22.6946394,26.8411045 C23.1044901,27.1324783 23.2673723,27.142682 23.7133141,26.8333572 C24.9468344,25.9775646 26.0053793,24.9416947 26.8893266,23.7259365 C27.8993092,22.3369034 28.6037461,20.8006717 29.0559235,19.1533324 C29.4090868,17.8663368 29.6371595,16.553454 29.634892,15.2103377 C29.6343252,14.8673783 29.6369706,14.5244188 29.6352699,14.1814593 C29.6311129,13.3581676 29.5016764,12.5501816 29.3457857,11.744274 Z" id="Fill-6" fill="#09ACF8"></path>
                <path d="M2.62270464,16.8383465 C2.63593173,16.8016886 2.66408653,16.7623853 2.71680592,16.7189248 C2.72833238,16.7202475 2.74155946,16.7215702 2.75384176,16.722893 C2.70886966,16.7603067 2.66578715,16.7992321 2.62270464,16.8383465 M12.2062962,6.38686911 C11.9695313,6.45848434 11.7469383,6.49929935 11.5468314,6.59018834 C9.94370844,7.31805605 8.66823932,8.42289574 7.74612238,9.92851618 C7.67450715,10.0452925 7.60648213,10.1658479 7.5212619,10.2722315 C7.25388578,10.606121 6.86198608,10.6000743 6.61974143,10.2569259 C6.56267599,10.1762406 6.53830036,10.0723135 6.4818018,9.93871994 C6.71403166,9.59122546 6.93738048,9.22785848 7.18907305,8.88527692 C8.28484275,7.3936394 9.65479106,6.2311674 11.3508816,5.47060988 C11.6445229,5.33909485 11.8550225,5.13161854 12.0364226,4.83873303 C11.9600834,4.71118612 11.8843111,4.584584 11.8160971,4.47045314 C11.4336453,4.40299499 11.1024013,4.41452145 10.7826837,4.58704046 C10.4520065,4.76541718 10.1035672,4.91242681 9.78007047,5.1027079 C9.07053172,5.52011698 8.4008632,5.99421358 7.80318781,6.56562375 C7.05680218,7.27894166 6.39147969,8.0557496 5.86447475,8.94820006 C5.61278218,9.37411227 5.19971914,9.3735454 4.93442156,8.95632527 C4.88189113,8.8735615 4.864318,8.76831168 4.82992757,8.6719429 C4.90210968,8.52190994 4.95709657,8.3767899 5.03683701,8.24659757 C5.44933317,7.57333883 5.9219181,6.9441074 6.46403972,6.37005181 C7.36423748,5.41656779 8.39292694,4.62558797 9.54273874,3.99616758 C9.79594298,3.85747212 10.000207,3.69912499 10.0635081,3.35748823 C9.99945116,3.2577182 9.91952176,3.13300566 9.85470904,3.03210188 C9.291802,2.96747811 9.28802283,2.96067561 8.87798313,3.18345755 C8.01671079,3.65131852 7.22044014,4.21479244 6.5031541,4.88181555 C5.66077761,5.66485911 4.87414384,6.49929935 4.27117762,7.48963026 C4.21959198,7.57428362 4.13399383,7.63815156 4.04045943,7.73659888 C3.90403147,7.71902575 3.76193476,7.70069678 3.64024556,7.68501324 C3.52762636,7.32844876 3.6173816,7.04255472 3.78328706,6.80390027 C4.20296364,6.20017822 4.61054688,5.58039471 5.16797413,5.09042561 C5.55269341,4.75200113 5.9691577,4.44985667 6.36842677,4.12787158 C6.51260202,4.01147321 6.64827414,3.88468213 6.76070439,3.78623481 C6.82381649,3.38243073 6.66887061,3.1823238 6.31362884,3.11051961 C6.18967214,3.149634 6.05532272,3.18119005 5.93061019,3.23485423 C5.83764266,3.27491341 5.75468993,3.34029301 5.67154823,3.40019282 C4.65155085,4.13542991 3.74662913,4.98857704 2.98002495,5.98873379 C2.13934908,7.08544827 1.48498618,8.28627883 0.997095624,9.5728965 C0.380713361,11.1988834 0.0489024309,12.8894941 0.00789846063,14.6290451 C-0.00986362787,15.3799657 -0.00249425073,16.1303194 0.083481816,16.8842634 C0.202525601,17.9254241 0.392617739,18.9450436 0.732931797,19.933296 C0.867470169,20.3244398 0.99993,20.7244647 1.27070737,21.1643599 C1.52976932,19.7161828 1.88293255,18.3991428 2.6996107,17.2871227 C3.93993356,16.2110047 5.7102847,15.7635512 7.19360805,14.974272 C7.20589035,14.969926 7.21930639,14.965202 7.23083286,14.9610449 C7.23253348,14.9576437 7.23385619,14.9548093 7.23536786,14.9514081 C7.43245146,14.8454024 7.6238663,14.7327832 7.80847865,14.6118498 C7.82208365,14.6141173 7.8354997,14.6163848 7.8491047,14.6186523 C8.10665499,14.4652181 8.35154506,14.2993127 8.58434179,14.1213139 C8.66086994,14.1196132 8.70659787,14.0716178 8.72265933,14.0137965 C9.21659656,13.6145275 9.64458731,13.1479892 9.97715407,12.581114 C10.2282798,12.1529343 10.4563525,11.709638 10.7301532,11.2967639 C11.1107154,10.7230862 11.5819777,10.2234802 12.1269337,9.80115823 C12.2869814,9.67701257 12.3882631,9.53831711 12.4264327,9.31515725 C12.3635096,9.21859952 12.2905716,9.10692511 12.229916,9.01395758 C11.7903988,8.88017504 11.4661462,9.06063031 11.1520973,9.28549079 C10.4576753,9.78264031 9.93501635,10.4322792 9.48453955,11.1482426 C9.37740015,11.3183051 9.25042011,11.4758964 9.15216175,11.6119465 C8.58037367,11.6348104 8.53445678,11.6007979 8.34663214,11.046394 C8.36609485,10.9938636 8.38706923,10.9288619 8.41390133,10.8665056 C8.44092237,10.8035825 8.46945509,10.7406593 8.50460135,10.6820822 C9.2254776,9.48654251 10.1663014,8.51378473 11.3983101,7.83863641 C11.5936931,7.731497 11.812129,7.6593149 11.9903167,7.53025632 C12.2087526,7.37209815 12.4139614,7.18616309 12.5879921,6.98114324 C12.6577178,6.8991353 12.6291851,6.73379671 12.6467582,6.59566813 C12.4685704,6.51120373 12.3327093,6.44676892 12.2062962,6.38686911" id="Fill-8" fill="#50D2C2"></path>
                <path d="M9.54527078,1.74932007 C10.2990258,2.1892152 11.0684643,2.60567949 11.7959541,3.08563379 C12.8766072,3.79876275 13.7272978,4.72768219 14.1756961,5.96724922 C14.4152953,6.62935941 14.6955206,7.26898355 15.0439599,7.88026394 C15.7049363,9.04027949 16.6206287,9.94557913 17.7904701,10.5821799 C18.5820167,11.0130051 19.2885322,11.5333965 19.8374563,12.2578629 C19.9897567,12.4587257 20.1431909,12.6741383 20.392805,12.7580358 C20.8587764,12.5943978 20.9882129,12.3910786 20.8007661,12.0059814 C20.6458203,11.6875865 20.4481698,11.3750493 20.2089485,11.1157984 C19.6991387,10.563662 19.184605,10.01436 18.4956628,9.65911821 C18.1001729,9.45523211 18.1302172,8.98226926 18.5257071,8.75892045 C18.6390822,8.69486355 18.7792893,8.67823521 18.90797,8.6396877 C20.2682814,9.45145294 21.3436436,10.4973376 22.0511038,11.9007316 C22.1667463,12.130316 22.2782318,12.361979 22.3967087,12.5898628 C22.5395612,12.8646083 22.7502498,13.0450636 23.062598,13.0643373 C23.2982292,12.9653231 23.3590738,12.7884581 23.3636088,12.5632197 C23.3696554,12.2605083 23.2674289,11.9901089 23.1402599,11.7282126 C22.4231629,10.2509359 21.4265963,9.0134474 20.0328393,8.1170288 C19.8338661,7.98910397 19.6477421,7.84171643 19.4667199,7.71114618 C19.4551935,7.57188385 19.4327074,7.46927945 19.4408326,7.36932046 C19.470877,7.00557556 19.7395758,6.81661717 20.0848028,6.91789887 C20.1815495,6.94624263 20.2779183,6.99650556 20.3574698,7.05829495 C20.8703028,7.45699715 21.4022207,7.83529184 21.8834977,8.26951822 C22.9140768,9.19976037 23.6825705,10.327464 24.266074,11.5847931 C24.3664109,11.8011505 24.4773295,12.0165631 24.6131906,12.2115681 C24.7464062,12.402794 24.9298848,12.5314747 25.201607,12.4020382 C25.5419211,12.053221 25.4385608,11.6499838 25.2711437,11.2667762 C24.7392258,10.0500731 24.0402688,8.93748612 23.1258991,7.96831855 C22.5242556,7.33077295 21.8551539,6.77258987 21.1195389,6.2947141 C21.0197689,6.22971242 20.9182983,6.1616874 20.8351566,6.07760092 C20.6588584,5.8992242 20.6446865,5.72897269 20.7790359,5.52357492 C20.8444155,5.42342698 20.9218885,5.33140424 20.9394616,5.30816236 C21.2863892,5.21387212 21.5035024,5.25015213 21.7202377,5.39961822 C22.4118254,5.87711607 23.0888633,6.37766684 23.6689655,6.98365639 C24.511342,7.86382456 25.2637743,8.81806442 25.805707,9.92120349 C25.8584264,10.0283429 25.9205937,10.1326479 25.9910752,10.2288277 C26.2132902,10.532106 26.377684,10.5644178 26.7924477,10.3905761 C26.9887754,9.93386371 26.8103987,9.53194921 26.5842155,9.13834889 C25.7754736,7.7306089 24.7944017,6.46628832 23.5140196,5.45158177 C23.1924125,5.19705483 22.8672151,4.94725184 22.5465527,4.69140218 C22.3572164,4.54042443 22.1586211,4.38906876 22.2821999,4.06519408 C22.3662864,4.02343428 22.4704025,3.97203759 22.5920917,3.91175987 C22.763288,3.99131135 22.9509236,4.04516449 23.099067,4.15343765 C23.5818557,4.50660087 24.0614321,4.86581077 24.5209789,5.24845151 C25.0940897,5.72538248 25.4661487,6.37313183 25.8998083,6.96608326 C26.0186631,7.12839851 26.1452652,7.24574167 26.3434825,7.28296647 C26.6150158,7.24441896 26.7665604,7.08248162 26.836475,6.74008903 C26.7442633,6.55679939 26.650351,6.29660369 26.4969168,6.07835675 C25.8157218,5.10824438 25.0315445,4.23374496 24.1101834,3.47791141 C22.7408019,2.35455379 21.2000352,1.55488189 19.5324774,0.991785893 C18.2978233,0.574943688 17.0193309,0.332321118 15.7238322,0.238408799 C14.580445,0.155456066 13.426665,0.16792732 12.2910251,0.344603413 C11.1259077,0.526003466 9.98025299,0.806228756 8.80209744,1.35723142 C9.09951794,1.5135 9.32759072,1.62252899 9.54527078,1.74932007 Z" id="Fill-1" fill="#FFAB24"></path>
            </g>
        </g>
    </g>
</svg>