<?xml version="1.0" encoding="UTF-8" standalone="no"?>
<svg width="29px" height="30px" viewBox="0 0 29 30" version="1.1" xmlns="http://www.w3.org/2000/svg" xmlns:xlink="http://www.w3.org/1999/xlink">
    <!-- Generator: Sketch 40 (33762) - http://www.bohemiancoding.com/sketch -->
    <title>icn_marketplace</title>
    <desc>Created with Sketch.</desc>
    <defs>
        <filter x="-50%" y="-50%" width="200%" height="200%" filterUnits="objectBoundingBox" id="filter-1">
            <feOffset dx="2" dy="2" in="SourceAlpha" result="shadowOffsetOuter1"></feOffset>
            <feGaussianBlur stdDeviation="3.5" in="shadowOffsetOuter1" result="shadowBlurOuter1"></feGaussianBlur>
            <feColorMatrix values="0 0 0 0 0.101960784   0 0 0 0 0.17254902   0 0 0 0 0.247058824  0 0 0 0.600000024 0" type="matrix" in="shadowBlurOuter1" result="shadowMatrixOuter1"></feColorMatrix>
            <feMerge>
                <feMergeNode in="shadowMatrixOuter1"></feMergeNode>
                <feMergeNode in="SourceGraphic"></feMergeNode>
            </feMerge>
        </filter>
        <linearGradient x1="50%" y1="0%" x2="50%" y2="100%" id="linearGradient-2">
            <stop stop-color="#00FAFF" offset="0%"></stop>
            <stop stop-color="#00FF8A" offset="100%"></stop>
        </linearGradient>
        <polygon id="path-3" points="-4.26325641e-15 0 9.08762577 0 12.0753383 0 12.0753383 2.64506427 -4.26325641e-15 2.64506427"></polygon>
        <linearGradient x1="49.6944784%" y1="30.2358332%" x2="46.9834845%" y2="104.295276%" id="linearGradient-5">
            <stop stop-color="#F6DA31" offset="1%"></stop>
            <stop stop-color="#F3811E" offset="97%"></stop>
        </linearGradient>
        <linearGradient x1="49.6441599%" y1="91.32367%" x2="51.5463965%" y2="11.6659342%" id="linearGradient-6">
            <stop stop-color="#F48E90" offset="0%"></stop>
            <stop stop-color="#F04B4C" offset="100%"></stop>
        </linearGradient>
        <linearGradient x1="103.151322%" y1="49.6419025%" x2="12.9891893%" y2="50.8498127%" id="linearGradient-7">
            <stop stop-color="#6EC9FF" offset="1%"></stop>
            <stop stop-color="#3E8ADC" offset="99%"></stop>
        </linearGradient>
        <linearGradient x1="0.121953188%" y1="50.0310783%" x2="84.8726993%" y2="50.0310783%" id="linearGradient-8">
            <stop stop-color="#58F1C5" offset="0%"></stop>
            <stop stop-color="#41B99E" offset="100%"></stop>
        </linearGradient>
    </defs>
    <g id="Symbols" stroke="none" stroke-width="1" fill="none" fill-rule="evenodd">
        <g id="icn_marketplace">
            <g>
                <path d="M5.79348233,3.85210629 C6.44868679,4.4487336 7.83916516,5.28424328 8.44359794,5.44708005 C8.93749825,4.02486205 9.56906475,2.67207699 10.5726795,1.48774946 C9.41525151,1.54941252 6.44119588,3.0284994 5.79348233,3.85210629 L5.79348233,3.85210629 Z M18.4078329,5.46146259 C19.3307123,5.09313739 20.7784545,4.16438919 21.011172,3.79374956 C20.0456776,2.85640491 17.2578958,1.51519201 16.2176588,1.49584997 C16.742688,2.07082082 17.1578506,2.69753574 17.4816241,3.37698662 C17.8048983,4.05511497 18.0932149,4.74960966 18.4078329,5.46146259 L18.4078329,5.46146259 Z M10.5608605,24.8785488 C10.344956,24.6087522 10.1345448,24.3348228 9.94677281,24.0466761 C9.74401899,23.7357157 9.55691284,23.4135138 9.38129274,23.0866831 C9.21133244,22.7702672 9.05385697,22.4462469 8.91036453,22.1171017 C8.76237755,21.7772109 8.63053763,21.4298809 8.50518982,21.0808978 C8.38483595,20.7458012 8.2817944,20.4045879 8.16144053,20.0362627 C7.5873043,20.2863866 7.0947357,20.6183421 6.5970067,20.9407093 C5.86489562,21.4148371 5.34785673,21.8504461 5.22500589,22.0901551 C6.63196426,23.4179774 8.63469924,24.4816238 10.5608605,24.8785488 L10.5608605,24.8785488 Z M12.8793788,1.20406632 C12.3273823,1.29003091 11.9290327,1.60644672 11.558649,1.95609116 C11.0592554,2.42773918 10.6835449,2.996428 10.3502829,3.59024493 C9.98622491,4.23894694 9.72870425,4.9350948 9.4786745,5.63289581 C9.45170724,5.70811483 9.44554806,5.79077309 9.42856867,5.87591109 C10.5540355,6.27498517 11.6846627,6.49931968 12.8509133,6.5275888 C12.9115064,6.20704008 12.9316486,1.8934362 12.8793788,1.20406632 L12.8793788,1.20406632 Z M17.4020541,5.86533084 C17.2906893,5.55222135 17.195638,5.25977643 17.0834409,4.97410949 C16.7155543,4.03726079 16.2710939,3.14223717 15.6183864,2.36210852 C15.3542072,2.04635398 15.0672223,1.75440501 14.7178132,1.53370746 C14.4731103,1.37930183 14.2227477,1.22208582 13.9146218,1.20704202 C13.8605208,1.82681364 13.8799972,6.21745502 13.9424214,6.52841539 C15.1110025,6.50113816 16.2436273,6.27267073 17.4020541,5.86533084 L17.4020541,5.86533084 Z M9.16089368,19.6276003 C9.49432217,20.9582329 9.9735736,22.1984374 10.6922011,23.3381295 C11.009649,23.8415183 11.3896875,24.3004369 11.8632792,24.6720685 C12.1560903,24.9015278 12.4823608,25.0668443 12.8442547,25.1734735 C12.9194967,24.8393688 12.9199961,19.2063738 12.8447541,18.8578865 C11.5849504,18.9374038 10.3534457,19.1536378 9.16089368,19.6276003 L9.16089368,19.6276003 Z M12.8725537,17.7484474 C12.9424688,17.0375864 12.9158345,13.9440184 12.8347663,13.6656254 C12.7187405,13.6656254 12.5957232,13.6651294 12.4727059,13.6656254 C11.1295034,13.6724034 9.78630099,13.6791813 8.44309854,13.6867859 C8.43244481,13.6867859 8.42129169,13.6970355 8.41147028,13.7041441 C8.40148241,13.7114181 8.39282625,13.7203451 8.35537173,13.7537391 C8.35537173,13.8251558 8.34838022,13.9225272 8.35653698,14.0184108 C8.39482383,14.4705515 8.46540479,14.9220309 8.47206338,15.3745022 C8.48371589,16.153639 8.62720834,16.9157481 8.72741999,17.683478 C8.76470805,17.968649 8.8476074,18.2480339 8.90437181,18.5054317 C9.5838801,18.3399499 10.2285973,18.1561179 10.8846341,18.0309733 C11.5365092,17.9066553 12.199704,17.8415206 12.8725537,17.7484474 L12.8725537,17.7484474 Z M12.8614006,12.6681055 C12.9284858,12.2169567 12.9130046,7.91013084 12.8514127,7.66132948 C12.2216773,7.57486894 11.5926078,7.51171803 10.9731932,7.39715368 C10.3554433,7.28275465 9.74734828,7.11694219 9.11078785,6.96782669 C9.07566383,7.08371357 9.0335483,7.18587918 9.01440488,7.2921777 C8.88090031,8.03097721 8.753222,8.77093394 8.62138208,9.51006409 C8.48488115,10.2758102 8.45058945,11.0501528 8.41446664,11.824826 C8.40597695,12.0079967 8.37201818,12.1900101 8.35920041,12.3731808 C8.35270829,12.46675 8.36752364,12.561807 8.3733499,12.6681055 L12.8614006,12.6681055 L12.8614006,12.6681055 Z M18.4213165,12.6419855 C18.3958474,11.9797275 18.3961804,11.3378035 18.3395824,10.700839 C18.2841497,10.0772651 18.1744496,9.45832002 18.0818953,8.83821776 C17.9876764,8.20885778 17.895455,7.5785059 17.6782188,6.93724313 C16.435228,7.34177265 15.1824158,7.53998715 13.9104602,7.64992264 L13.9104602,12.6365301 C14.2237465,12.6945562 18.0441078,12.6998463 18.4213165,12.6419855 L18.4213165,12.6419855 Z M4.3732068,21.2579517 C4.47175381,21.190172 4.55432023,21.141073 4.62773109,21.0808978 C4.73310315,20.9944372 4.82832087,20.8960739 4.93352647,20.8092827 C5.73105812,20.1514883 6.59351095,19.5930491 7.52587888,19.1410737 C7.65488891,19.0785841 7.77141409,18.9906357 7.88727342,18.9183924 C7.87528797,18.8316012 7.87095989,18.7831635 7.86180434,18.7355523 C7.77590863,18.2880405 7.66554264,17.8436697 7.60877823,17.3925209 C7.53486797,16.8064739 7.43232581,16.2247251 7.40985309,15.6297509 C7.38787977,15.0534575 7.29249559,14.4794786 7.29349437,13.8995483 C7.29349437,13.8297847 7.27584913,13.7600211 7.26353075,13.6697583 C5.2977509,13.6697583 3.35494316,13.6694277 1.41230188,13.6715768 C1.36602473,13.6715768 1.31974759,13.6972008 1.2609856,13.7147244 C1.40564329,16.5791637 2.4532047,19.0640362 4.3732068,21.2579517 L4.3732068,21.2579517 Z M4.86044853,4.59090581 C2.65412741,6.82846487 1.42794954,9.49452434 1.26031974,12.6345463 C1.59857571,12.702326 6.97071961,12.6988544 7.27734731,12.6297521 C7.36440827,10.5907382 7.5563419,8.56081665 8.1113347,6.58131667 C7.54402352,6.26837251 6.99019597,5.98783038 6.46283628,5.6648019 C5.92582164,5.33582203 5.41477548,4.96485177 4.86044853,4.59090581 L4.86044853,4.59090581 Z M21.931388,4.58892201 C21.398535,4.95708189 20.9043017,5.32904406 20.3797719,5.65256848 C19.8459201,5.98154835 19.2821047,6.26291706 18.710299,6.57668781 C18.9243724,7.58677173 19.1612514,8.5793321 19.2862663,9.59487146 C19.4111147,10.6080964 19.4633846,11.624793 19.5111599,12.6304133 C19.5546072,12.6519045 19.5754152,12.669924 19.5977215,12.6719078 C19.6717982,12.6781898 19.7465408,12.6814962 19.8209504,12.6813308 C21.7008346,12.6778592 23.5805523,12.6737263 25.4604364,12.6690974 C25.4715895,12.6690974 25.483575,12.6618235 25.4935629,12.6555415 C25.5038837,12.6489288 25.5122069,12.6391751 25.5418376,12.6123938 C25.3755395,9.48675446 24.1540226,6.82052967 21.931388,4.58892201 L21.931388,4.58892201 Z M25.3740413,15.4232706 C25.4343015,14.8430096 25.4930635,14.2769659 25.5514925,13.7148897 C25.1864358,13.6472752 19.8552421,13.649755 19.5221466,13.715551 C19.4878549,14.2685347 19.4172739,15.4049205 19.4172739,15.4049205 L18.3826967,15.4227746 C18.3826967,15.4227746 18.4179872,14.2713451 18.4464527,13.6839755 C18.4464527,13.6839755 13.8248812,13.63405 13.8247147,13.7155511 C13.8220513,14.9165756 13.9004723,17.6388426 13.9082961,17.7254684 C14.0030145,17.7535722 15.2653151,17.9410411 15.4023155,17.9803865 C15.2874549,18.3244101 15.1837475,18.6342133 15.0763779,18.9554233 C14.6928436,18.919219 14.4954004,18.9908001 14.1188576,18.9554224 C14.0928891,19.0610596 13.8943131,19.024195 13.8941466,19.0932973 C13.8921491,21.0742851 13.8931479,23.0552729 13.894646,25.0364261 C13.894646,25.059901 13.9061321,25.0835413 13.9141224,25.1137942 C14.0023486,25.1923195 14.0949029,25.1509904 14.1862919,25.1119757 C14.7108217,24.8881371 15.1496223,24.5497342 15.5230023,24.1243748 C15.6030717,24.0331201 15.6811436,23.9400469 15.7726991,23.8330871 C15.8352897,24.1278465 15.8499386,25.5996594 15.7983346,26.1012297 C15.531159,26.1534698 15.2569919,26.232987 14.9781638,26.2561313 C14.3845512,26.3052303 13.7856118,26.3761511 13.1939968,26.3437491 C12.4543948,26.3032465 11.7109641,26.2693566 10.9780207,26.1134632 C10.124224,25.9317803 9.28457684,25.7133972 8.47256277,25.3954935 C7.37739251,24.9668278 6.37377774,24.3776397 5.42559567,23.6877739 C4.70963165,23.1666963 4.07606758,22.5553558 3.48262146,21.9091335 C2.87086425,21.2429079 2.35132839,20.4994796 1.89588139,19.7168712 C1.2689759,18.6391728 0.820021012,17.4898924 0.533535524,16.2796101 C0.397367524,15.703978 0.259035484,15.1295031 0.243720745,14.5302308 C0.231235904,14.039406 0.138681615,13.5505651 0.130857782,13.060071 C0.125197987,12.6942255 0.197443601,12.3270575 0.236229841,11.9607161 C0.268690428,11.6543846 0.288499709,11.345904 0.338938467,11.0425482 C0.536365422,9.85524498 0.876951888,8.71191594 1.39382431,7.6195044 C1.92717672,6.4925417 2.59270199,5.4505517 3.42702231,4.52494452 C4.49572471,3.33912914 5.7147446,2.33466598 7.13984759,1.58231051 C8.14729104,1.05032196 9.19951345,0.644800543 10.3078344,0.392031589 C10.8743133,0.262919389 11.4424568,0.129343643 12.0327401,0.113638574 C12.5268068,0.100413252 13.0190425,0.00767068639 13.5127764,0.000396759641 C13.8938137,-0.00538931846 14.2760163,0.0652008343 14.6575531,0.104711482 C14.9288903,0.13281529 15.2008934,0.159100616 15.4708989,0.197949998 C16.7233781,0.378145001 17.9139326,0.752586912 19.0597081,1.28837774 C20.114261,1.78151691 21.0772584,2.40476018 21.9660126,3.15033768 C23.2444603,4.22291124 24.2702149,5.49221146 25.0667477,6.95460137 C25.6515377,8.02849746 26.084512,9.15546016 26.337871,10.3459044 C26.4838604,11.0316373 26.6290175,11.7216685 26.6087089,12.4330254 C26.600885,12.7018301 26.6787904,12.9736104 26.664308,13.2412579 C26.6306822,13.8679728 26.5674257,14.4931999 26.5093295,15.1184269 C26.5003404,15.2138146 26.4555615,15.3058959 26.4201045,15.4232706 L25.3740413,15.4232706 Z" id="Fill-40" fill="#09ACF8"></path>
                <path d="M17.1174163,17.6147063 C16.9058399,18.3270552 16.6992574,19.0220459 16.5066579,19.6704172 C16.5764066,20.1438837 16.8537365,20.3288729 17.2415989,20.3835927 C17.6033264,20.3288729 17.8412042,20.1526455 17.9157803,19.7858082 C18.0283104,19.2313366 18.1513277,18.6790141 18.2661882,18.1248731 C18.299814,17.962367 18.321288,17.7972158 18.351418,17.6147063 L17.1174163,17.6147063 Z M19.6370238,20.3915279 C20.1615535,20.2414205 20.3291833,20.063044 20.370633,19.6061091 C20.4262322,18.9926195 20.4750063,18.3784686 20.5239469,17.7643178 C20.5276091,17.7193517 20.5084657,17.6725671 20.4989772,17.6211537 L19.2794579,17.6211537 C19.1983897,18.0969346 19.1176544,18.5565145 19.0427453,19.0170864 C19.0071219,19.2358001 18.9638411,19.4556711 18.9568496,19.676038 C18.9466953,20.0012156 19.1025061,20.2091838 19.4083015,20.3275504 C19.4772178,20.3543317 19.5512945,20.3680529 19.6370238,20.3915279 L19.6370238,20.3915279 Z M23.6253479,17.6153676 C23.6208533,17.712739 23.6095337,17.7851477 23.6156929,17.8560685 C23.6628024,18.4083909 23.7208985,18.9600522 23.7603506,19.5128706 C23.7994698,20.0600683 24.0178713,20.321599 24.4927946,20.3845846 C24.9707144,20.334659 25.2610285,20.0260131 25.1689736,19.436329 C25.157654,19.3632591 25.143671,19.2906852 25.1315191,19.2176153 C25.0930658,18.9866681 25.056943,18.7553903 25.0163256,18.5247738 C24.9632234,18.224063 24.9066255,17.9240135 24.8500276,17.6153676 L23.6253479,17.6153676 Z M25.798709,17.6183433 C25.7937151,17.68976 25.7862242,17.7152188 25.7910516,17.7381978 C25.9345441,18.4364947 26.0778701,19.1347917 26.2245253,19.8325927 C26.2674732,20.0365933 26.3800032,20.1964544 26.5727692,20.2858906 C26.6728144,20.3323446 26.782348,20.3579686 26.8807286,20.3908666 C26.9519754,20.3735084 27.0132344,20.3627628 27.0716634,20.3437514 C27.4964809,20.2065387 27.6774279,19.8861553 27.5680607,19.4586468 C27.5161238,19.2558034 27.4575282,19.0546132 27.3964358,18.8542496 C27.2710879,18.4436034 27.1422444,18.033949 27.0130679,17.6183433 L25.798709,17.6183433 Z M21.4892748,17.618178 C21.4734607,17.6565314 21.4416659,17.6991831 21.4396683,17.7433226 C21.4117023,18.3837588 21.3875649,19.0243603 21.3629282,19.6649618 C21.3552708,19.8636722 21.4456611,20.0189044 21.5766687,20.1610767 C21.7118379,20.3075471 21.8866257,20.3582993 22.0689043,20.3908666 C22.6115788,20.2472066 22.7827043,20.0448591 22.7708853,19.5072498 C22.7580676,18.9159126 22.7236094,18.3249061 22.6961428,17.7338995 C22.6944781,17.7000097 22.6716725,17.6669464 22.652862,17.618178 L21.4892748,17.618178 Z M27.7326941,20.0483308 L27.7326941,20.4984877 C27.7326941,22.3792937 27.730863,26.409545 27.7346917,28.2903511 C27.7353576,28.5502286 27.7175459,28.7896069 27.4077553,28.9354161 L16.7258917,28.9354161 C16.4518911,28.8162229 16.3999541,28.5946988 16.4007865,28.3255635 C16.4061133,26.4447575 16.4037828,22.4145061 16.403117,20.5337001 C16.4029505,20.4002897 16.3957925,20.2668792 16.3911315,20.1080101 C16.2867583,20.130989 16.217509,20.1514883 16.1467616,20.1610767 C15.7177824,20.2192681 15.4181462,19.87293 15.5573106,19.4670779 C15.7697194,18.8468103 15.9927819,18.2300144 16.2155114,17.6130532 C16.3248786,17.3096974 16.438241,17.0098132 16.4046152,16.6770311 C16.3566734,16.2029033 16.6752865,16.025188 17.0571562,16.0275025 C19.1629327,16.0402318 21.2687093,16.0336192 23.3744858,16.0336192 C24.5707,16.0336192 25.7669143,16.0334539 26.9631285,16.0337845 C27.0628408,16.0337845 27.1632189,16.0275025 27.2619324,16.0380827 C27.5307726,16.0666825 27.6920768,16.2262129 27.7280331,16.487909 C27.7296978,16.5001424 27.7323612,16.5128718 27.730863,16.5247745 C27.6732663,16.9990676 27.8497187,17.4226085 28.0115223,17.8524315 C28.1947997,18.3387927 28.3609313,18.8314359 28.5315575,19.322426 C28.5680132,19.4270713 28.6082977,19.5343617 28.6192843,19.6433053 C28.6559065,20.0030341 28.388398,20.2338159 28.0329962,20.154464 C27.9497639,20.1359485 27.8710262,20.0979257 27.7326941,20.0483308 L27.7326941,20.0483308 Z" id="Fill-42" fill="#FFAB24"></path>
                <g id="Group-4" transform="translate(16.053841, 19.176716)" opacity="0.2">
                    <g id="Combined-Shape-+-Combined-Shape-+-Combined-Shape-+-Combined-Shape-+-Combined-Shape-Mask" filter="url(#filter-1)">
                        <mask id="mask-4" fill="white">
                            <use xlink:href="#path-3"></use>
                        </mask>
                        <use id="Mask" fill="url(#linearGradient-2)" xlink:href="#path-3"></use>
                        <path d="M4.31679196,0.429393122 C4.37239112,-0.184096473 4.42116524,-0.798247334 4.47010581,-1.4123982 C4.47376803,-1.45736429 4.45462461,-1.50414886 4.44513613,-1.5555623 L3.22561685,-1.5555623 C3.14454861,-1.07978136 3.06381331,-0.620201446 2.98890426,-0.159629629 C2.95328085,0.0590841232 2.91000006,0.278955091 2.90300855,0.499322008 C2.89285422,0.824499597 3.04866503,1.03246778 3.35446041,1.1508344 C3.42337673,1.17761568 3.49745346,1.19133695 3.5831827,1.21481189 C4.10771249,1.0647045 4.27534229,0.886327975 4.31679196,0.429393122 Z" id="Combined-Shape" fill="#8AA5B3" opacity="0.8" mask="url(#mask-4)"></path>
                        <path d="M7.57150682,-1.56134838 C7.56701227,-1.46397695 7.55569268,-1.39156831 7.56185187,-1.32064753 C7.60896134,-0.768325045 7.66705747,-0.216663827 7.70650956,0.336154606 C7.74562873,0.883352277 7.96403022,1.14488301 8.43895358,1.2078686 C8.9168733,1.15794301 9.20718747,0.849297075 9.11513257,0.259613058 C9.10381298,0.186543158 9.08982996,0.113969207 9.07767805,0.0408993063 C9.03922474,-0.190047868 9.00310193,-0.421325675 8.96248458,-0.651942217 C8.90938239,-0.952652961 8.85278444,-1.25270244 8.7961865,-1.56134838 L7.57150682,-1.56134838 Z" id="Combined-Shape" fill="#8AA5B3" opacity="0.8" mask="url(#mask-4)"></path>
                        <path d="M9.74486796,-1.55837268 C9.73987402,-1.48695594 9.73238312,-1.4614972 9.73721059,-1.43851821 C9.88070303,-0.740221237 10.024029,-0.0419242687 10.1706843,0.65587675 C10.2136321,0.859877332 10.3261622,1.0197384 10.5189281,1.10917464 C10.6189733,1.15562858 10.728507,1.18125264 10.8268875,1.21415063 C10.8981344,1.19679239 10.9593933,1.18604682 11.0178224,1.16703542 C11.4426399,1.02982271 11.6235869,0.709439301 11.5142196,0.281930788 C11.4622827,0.0790874218 11.4036872,-0.12210278 11.3425947,-0.322466398 C11.2172469,-0.733112627 11.0884033,-1.14276696 10.9592268,-1.55837268 L9.74486796,-1.55837268 Z" id="Combined-Shape" fill="#8AA5B3" opacity="0.8" mask="url(#mask-4)"></path>
                        <path d="M5.43543373,-1.558538 C5.4196196,-1.52018456 5.38782487,-1.4775329 5.38582729,-1.43339339 C5.35786125,-0.792957206 5.33372389,-0.152355702 5.30908714,0.488245802 C5.30142977,0.686956255 5.39182002,0.842188465 5.52282762,0.984360669 C5.65799683,1.1308311 5.83278461,1.18158327 6.01506329,1.21415063 C6.55773772,1.07049057 6.72886327,0.868143158 6.71704429,0.330533844 C6.70422652,-0.260803337 6.66976836,-0.851809886 6.64230171,-1.44281643 C6.64063706,-1.47670632 6.61783142,-1.50976962 6.59902092,-1.558538 L5.43543373,-1.558538 Z" id="Combined-Shape" fill="#8AA5B3" opacity="0.8" mask="url(#mask-4)"></path>
                        <path d="M1.06357529,-1.56200964 C0.851998852,-0.849660771 0.645416347,-0.154670133 0.452816865,0.493701247 C0.522565511,0.967167752 0.799895448,1.15215693 1.18775785,1.2068767 C1.54948531,1.15215693 1.78736315,0.975929527 1.86193927,0.609092176 C1.9744693,0.0546205772 2.0974866,-0.497701906 2.21234714,-1.05184287 C2.24597298,-1.21434901 2.26744691,-1.37950021 2.29757699,-1.56200964 L1.06357529,-1.56200964 Z" id="Combined-Shape" fill="#8AA5B3" opacity="0.8" mask="url(#mask-4)"></path>
                    </g>
                </g>
                <path d="M17.6779004,25.2726399 C17.6779004,26.5950994 18.7496767,27.6671646 20.0778848,27.6671646 L24.0185741,27.6671646 C25.3440489,27.6671646 26.4185585,26.5934389 26.4185585,25.2726399 L26.4185585,24.1325319 C26.4185585,22.8100724 25.3467822,21.7380072 24.0185741,21.7380072 L20.0778848,21.7380072 C18.75241,21.7380072 17.6779004,22.8117328 17.6779004,24.1325319 L17.6779004,25.2726399 Z" id="Fill-46" fill="#FFFFFF"></path>
                <g id="EquityX_branding" transform="translate(19.476352, 22.152413)">
                    <path d="M2.36281775,1.98379553 C2.15891329,1.98431935 1.9628297,1.90789883 1.81621288,1.7707648 C0.83307032,0.856899069 0.83307032,0.847150205 0.832324102,0.727997423 C0.832110319,0.667360221 0.857122068,0.60919103 0.9017224,0.566599564 C0.953001141,0.518025879 1.02469692,0.495276816 1.09574024,0.505037727 C1.16678355,0.514798639 1.22910298,0.555960565 1.26438447,0.616427091 C1.30169539,0.65795003 1.46287853,0.823319649 2.13559429,1.44869122 C2.19897383,1.50758658 2.28408131,1.53947385 2.37191903,1.53723514 C2.45975674,1.53499643 2.54301182,1.49881812 2.60310003,1.43677594 L3.92390636,0.0762678136 C3.97943477,0.0148101802 4.0652114,-0.0123964596 4.14755831,0.00532986567 C4.22990522,0.023056191 4.29567581,0.082885491 4.31904697,0.161327365 C4.34241814,0.239769238 4.31965871,0.324300517 4.25970457,0.381732218 L2.93964447,1.74260141 C2.79554355,1.89228307 2.59505723,1.97926506 2.38371187,1.98379553 L2.36281775,1.98379553 L2.36281775,1.98379553 Z M1.34604135,0.825847132 C1.31519978,0.870365265 1.27437337,0.910910113 1.22520802,0.945847132 C1.27448787,0.910981113 1.31532896,0.870421677 1.34604135,0.825847132 L1.34604135,0.825847132 Z" id="Shape" fill="url(#linearGradient-5)"></path>
                    <path d="M1.06334776,5.1248118 C0.971171642,5.12486843 0.8877937,5.07173852 0.85124865,4.98965848 C0.814703601,4.90757844 0.831995397,4.81227912 0.895235998,4.74723345 L2.21883591,3.38258848 C2.36367993,3.23326177 2.56410168,3.1463575 2.77541454,3.1412521 C2.98672741,3.13614669 3.19136126,3.21326465 3.34369036,3.35541153 C4.32733094,4.2736299 4.32733094,4.2834136 4.3280781,4.40299215 C4.32815149,4.46389061 4.30297671,4.52226001 4.25821833,4.56496674 C4.2067704,4.61365289 4.13490754,4.63636641 4.06376456,4.6264273 C3.99262157,4.61648819 3.93028831,4.57502663 3.89509693,4.51423645 C3.85475011,4.4693039 3.69074775,4.3011692 3.02353086,3.67827363 C2.96016921,3.6190754 2.87501087,3.58694593 2.78706302,3.58905645 C2.69911518,3.59116697 2.61569906,3.6273418 2.55543301,3.68950677 L1.2318331,5.05415175 C1.1881794,5.09931536 1.12717321,5.12490037 1.06334776,5.1248118 L1.06334776,5.1248118 Z M4.00787321,4.24500352 C3.95911846,4.27955055 3.91857411,4.3201374 3.88799888,4.36500352 C3.9189902,4.32014324 3.9598469,4.27956831 4.00883221,4.24500352 L4.00787321,4.24500352 Z" id="Shape" fill="url(#linearGradient-6)"></path>
                    <path d="M5.10234705,4.29822943 C5.04497133,4.29824926 4.98976117,4.27594357 4.94803337,4.23588452 L3.57307298,2.92255922 C3.42258789,2.77882861 3.33489595,2.57982067 3.32955041,2.3699095 C3.32420487,2.15999833 3.40165022,1.95663872 3.54461798,1.80517507 C4.46794638,0.827324787 4.47779619,0.827324787 4.59818275,0.826582585 L4.59818275,0.826582585 C4.65906842,0.826668267 4.7173913,0.851522285 4.76015738,0.895607312 C4.80923403,0.946610019 4.83221865,1.01791986 4.82235667,1.08858075 C4.81249469,1.15924163 4.77090655,1.22122559 4.70981392,1.25631717 C4.66786102,1.29342724 4.50077908,1.45374273 3.86893206,2.12320836 C3.80942686,2.18624672 3.77720941,2.27089606 3.77947131,2.35826095 C3.7817332,2.44562583 3.81828612,2.52843274 3.88097072,2.58819751 L5.25593111,3.90189391 C5.32310949,3.96621804 5.34498312,4.06568723 5.31114962,4.15299719 C5.27731612,4.24030715 5.19460345,4.29783779 5.10234705,4.29822943 L5.10234705,4.29822943 Z M4.43949138,1.2177227 C4.47465006,1.26651805 4.51547696,1.30706339 4.56032471,1.3377227 C4.51552631,1.30695307 4.47471194,1.26642017 4.43949138,1.2177227 L4.43949138,1.2177227 Z" id="Shape" fill="url(#linearGradient-7)"></path>
                    <path d="M0.727365314,4.29822944 C0.66635684,4.2981451 0.607931249,4.27316472 0.565176527,4.22888416 C0.516352615,4.17781844 0.493599954,4.10658188 0.503592184,4.03606906 C0.513584413,3.96555624 0.555188784,3.90376071 0.616202213,3.86880787 C0.658116169,3.83172483 0.825043055,3.67189694 1.45703262,3.0036606 C1.51657555,2.94076559 1.5488921,2.85623441 1.54676929,2.76893427 C1.54464648,2.68163414 1.50826102,2.59883236 1.44573408,2.53901014 L0.0731431277,1.22478728 C0.0132490072,1.16899159 -0.0124892606,1.08471255 0.00577906722,1.00420606 C0.0240473951,0.923699572 0.083493704,0.859431025 0.161366256,0.835997762 C0.239238809,0.812564499 0.323480045,0.833594859 0.381848527,0.891039943 L1.75443948,2.20489197 C1.90472536,2.34861745 1.99219915,2.54758009 1.99733504,2.75736768 C2.00247093,2.96715527 1.92484134,3.17030219 1.78177466,3.32146223 C0.858209751,4.29785861 0.848369083,4.29785861 0.728094252,4.29822944 L0.728094252,4.29822944 L0.727365314,4.29822944 Z M0.826500932,3.86213292 C0.871484999,3.89259139 0.912340636,3.93316526 0.947334266,3.98213292 C0.91244306,3.93300598 0.871566008,3.89241084 0.826500932,3.86213292 L0.826500932,3.86213292 Z" id="Shape" fill="url(#linearGradient-8)"></path>
                </g>
            </g>
        </g>
    </g>
</svg>