<?xml version="1.0" encoding="UTF-8" standalone="no"?>
<svg width="27px" height="30px" viewBox="0 0 27 30" version="1.1" xmlns="http://www.w3.org/2000/svg" xmlns:xlink="http://www.w3.org/1999/xlink">
    <!-- Generator: Sketch 40 (33762) - http://www.bohemiancoding.com/sketch -->
    <title>icn_onetime</title>
    <desc>Created with Sketch.</desc>
    <defs></defs>
    <g id="Symbols" stroke="none" stroke-width="1" fill="none" fill-rule="evenodd">
        <g id="icn_onetime">
            <g id="Group-6">
                <g>
                    <g id="Group-11">
                        <path d="M18.8313225,15.0006436 C18.5860424,15.2599193 18.5860424,15.5377106 18.8313225,15.8340257 L19.3372103,16.4451726 L9.26544416,16.4451726 C8.92818394,16.4451726 8.75955636,16.6303668 8.75955636,17.0007607 C8.75955636,17.4081941 8.92818394,17.6119077 9.26544416,17.6119077 L19.3372103,17.6119077 L18.8313225,18.1674958 C18.6167024,18.5008503 18.6167024,18.7786416 18.8313225,19.0008779 C18.9233026,19.1490355 19.0306111,19.2231132 19.1532511,19.2231132 C19.3065512,19.2231132 19.4291895,19.1675549 19.5211695,19.0564367 L20.8548737,17.4452312 C20.9775138,17.2970737 21.0388329,17.1489183 21.0388329,17.0007607 C21.0388329,16.8896426 20.9775138,16.7600066 20.8548737,16.6118491 L19.5211695,14.9450848 C19.2452294,14.685809 19.0152827,14.7043284 18.8313225,15.0006436 L18.8313225,15.0006436 Z" id="Path" fill="#50D2C2"></path>
                        <path d="M23.2463433,21.8343772 L21.8666493,20.2231717 C21.6520292,19.963896 21.4220825,19.963896 21.1768023,20.2231717 C20.9928422,20.5194869 20.9928422,20.8157976 21.1768023,21.1121127 L21.6826901,21.6677008 L9.26544416,21.6677008 C8.92818394,21.6677008 8.75955636,21.8714144 8.75955636,22.2788477 C8.75955636,22.686281 8.92818394,22.8899946 9.26544416,22.8899946 L21.6826901,22.8899946 L21.1768023,23.4455827 C20.9315222,23.7048585 20.9315222,23.9826498 21.1768023,24.2789649 C21.2994424,24.4271225 21.4220807,24.5012001 21.5447207,24.5012001 C21.6673608,24.5012001 21.7746693,24.4456419 21.8666493,24.3345237 L23.2463433,22.7233182 C23.3383234,22.6122 23.3843127,22.4640447 23.3843127,22.2788477 C23.3843127,22.0936508 23.3383234,21.9454954 23.2463433,21.8343772 L23.2463433,21.8343772 Z" id="Path" fill="#ED5564"></path>
                        <path d="M23.599943,26.9281425 L2.87418721,26.9281425 L2.87418721,6.84669906 L23.599943,6.84669906 L23.599943,8.78659712 L26.7040652,8.78659712 L26.7040652,2.56751215 C26.7040652,1.84480141 26.4453909,1.23621202 25.9280346,0.741725731 C25.4106783,0.247239438 24.8071051,0 24.1172967,0 L2.58676849,0 C1.85863742,0 1.24548361,0.247239438 0.747288674,0.741725731 C0.249093734,1.23621202 0,1.84480141 0,2.56751215 L0,27.1563658 C0,27.8790766 0.249093734,28.487666 0.747288674,28.9821522 C1.24548361,29.4766385 1.85863742,29.723878 2.58676849,29.723878 L24.1172967,29.723878 C24.8071051,29.723878 25.4106783,29.4766385 25.9280346,28.9821522 C26.4453909,28.487666 26.7040652,27.8790766 26.7040652,27.1563658 L26.7040652,25.7299702 L23.599943,25.7299702 L23.599943,26.9281425 Z M10.117139,2.85279127 L11.7841676,2.85279127 C12.1673944,2.85279127 12.359005,3.04297546 12.359005,3.42334953 C12.359005,3.84176101 12.1673944,4.05096361 11.7841676,4.05096361 L10.117139,4.05096361 C9.69558941,4.05096361 9.48481779,3.84176101 9.48481779,3.42334953 C9.48481779,3.04297546 9.69558941,2.85279127 10.117139,2.85279127 L10.117139,2.85279127 Z M6.61063058,2.85279127 L8.27765916,2.85279127 C8.66088604,2.85279127 8.8524966,3.04297546 8.8524966,3.42334953 C8.8524966,3.84176101 8.66088604,4.05096361 8.27765916,4.05096361 L6.61063058,4.05096361 C6.2274037,4.05096361 6.03579314,3.84176101 6.03579314,3.42334953 C6.03579314,3.04297546 6.2274037,2.85279127 6.61063058,2.85279127 L6.61063058,2.85279127 Z M2.52928474,3.42334953 C2.52928474,3.04297546 2.72089531,2.85279127 3.10412219,2.85279127 L4.77115077,2.85279127 C5.19270033,2.85279127 5.40347195,3.04297546 5.40347195,3.42334953 C5.40347195,3.84176101 5.19270033,4.05096361 4.77115077,4.05096361 L3.10412219,4.05096361 C2.72089531,4.05096361 2.52928474,3.84176101 2.52928474,3.42334953 L2.52928474,3.42334953 Z" id="î¸" fill="#FF8730"></path>
                        <path d="M9.26544416,12.3338207 L13.5424956,12.3338207 L13.0366078,12.9449676 C12.7913276,13.167204 12.7759978,13.4449952 12.990618,13.7783498 C13.113258,13.8894679 13.2358963,13.9450262 13.3585364,13.9450262 C13.4811764,13.9450262 13.5884849,13.8894679 13.680465,13.7783498 L15.0601589,12.1671443 C15.182799,12.0189867 15.2441181,11.8708313 15.2441181,11.7226738 C15.2441181,11.6115556 15.182799,11.4819197 15.0601589,11.3337621 L13.680465,9.72255661 C13.4658448,9.46328086 13.2358981,9.46328086 12.990618,9.72255661 C12.7759978,9.98183235 12.7913276,10.2596236 13.0366078,10.5559388 L13.5424956,11.1670857 L9.26544416,11.1670857 C8.92818394,11.1670857 8.75955636,11.3522799 8.75955636,11.7226738 C8.75955636,12.1301071 8.92818394,12.3338207 9.26544416,12.3338207 Z" id="Path" fill="#09ACF8"></path>
                    </g>
                </g>
            </g>
        </g>
    </g>
</svg>