<?xml version="1.0" encoding="UTF-8" standalone="no"?>
<svg width="141px" height="154px" viewBox="0 0 141 154" version="1.1" xmlns="http://www.w3.org/2000/svg" xmlns:xlink="http://www.w3.org/1999/xlink">
    <!-- Generator: Sketch 40 (33762) - http://www.bohemiancoding.com/sketch -->
    <title>icn_startups</title>
    <desc>Created with Sketch.</desc>
    <defs>
        <ellipse id="path-1" cx="64.5" cy="65" rx="64.5" ry="64"></ellipse>
        <mask id="mask-2" maskContentUnits="userSpaceOnUse" maskUnits="objectBoundingBox" x="0" y="0" width="129" height="128" fill="white">
            <use xlink:href="#path-1"></use>
        </mask>
        <path d="M64.3699597,128.903226 C99.9205068,128.903226 128.739919,100.047256 128.739919,64.4516129 C128.739919,55.1911784 126.789382,46.3868941 123.277233,38.428178 C113.289238,15.7948503 90.6718042,0 64.3699597,0 C28.8194126,0 0,28.85597 0,64.4516129 C0,100.047256 28.8194126,128.903226 64.3699597,128.903226 Z" id="path-3"></path>
        <mask id="mask-4" maskContentUnits="userSpaceOnUse" maskUnits="objectBoundingBox" x="-6" y="-6" width="140.739919" height="140.903226">
            <rect x="-6" y="-6" width="140.739919" height="140.903226" fill="white"></rect>
            <use xlink:href="#path-3" fill="black"></use>
        </mask>
        <mask id="mask-6" maskContentUnits="userSpaceOnUse" maskUnits="objectBoundingBox" x="-6" y="-6" width="140.739919" height="140.903226">
            <rect x="-6" y="-6" width="140.739919" height="140.903226" fill="white"></rect>
            <use xlink:href="#path-3" fill="black"></use>
        </mask>
        <filter x="-50%" y="-50%" width="200%" height="200%" filterUnits="objectBoundingBox" id="filter-7">
            <feGaussianBlur stdDeviation="4" in="SourceGraphic"></feGaussianBlur>
        </filter>
    </defs>
    <g id="DESIGNS" stroke="none" stroke-width="1" fill="none" fill-rule="evenodd">
        <g id="EquityX-|-Landing-page" transform="translate(-285.000000, -1134.000000)">
            <g id="benefits" transform="translate(61.000000, 1085.000000)">
                <g id="starup" transform="translate(82.000000, 55.000000)">
                    <g id="icn_startups" transform="translate(148.000000, 0.000000)">
                        <use id="Oval-1" stroke-opacity="0.600000024" stroke="#46C1FB" mask="url(#mask-2)" stroke-width="4" fill-opacity="0.3" fill="#46C1FB" xlink:href="#path-1"></use>
                        <g id="travel-ico">
                            <g id="Rectangle-3">
                                <mask id="mask-5" fill="white">
                                    <use xlink:href="#path-3"></use>
                                </mask>
                                <g id="Mask" stroke="#FFFFFF" mask="url(#mask-4)" stroke-width="12">
                                    <use mask="url(#mask-6)" xlink:href="#path-3"></use>
                                </g>
                                <path d="M67.361752,68.5450396 C67.361752,68.5450396 74.3791571,71.6499209 83.5906229,70.5416788 C87.9953209,70.0117445 105.756328,68.8095461 117.856559,61.1103663 C131.061323,52.7083895 138.482532,37.7743563 138.482532,37.7743563 C138.482532,37.7743563 135.681053,131.81733 132.914355,176.964862 C132.892719,177.317921 116.734836,174.880557 116.734836,174.880557 L59.4200453,174.880557 L67.361752,68.5450396 Z" fill-opacity="0.15" fill="#139CDB" style="mix-blend-mode: multiply;" mask="url(#mask-5)" transform="translate(98.951288, 107.387090) rotate(-47.000000) translate(-98.951288, -107.387090) "></path>
                            </g>
                            <ellipse id="Oval-2" fill="#8AA5B3" style="mix-blend-mode: multiply;" opacity="0.3" filter="url(#filter-7)" cx="61.8248848" cy="136.351726" rx="43.8787202" ry="1.99968219"></ellipse>
                        </g>
                        <path d="M84.1543832,62.9960255 C84.1684148,62.5096769 84.1707534,62.0256666 84.1660762,61.5533474 C84.0117286,47.832707 76.3013631,35.4542016 64.0377427,29.2462432 C63.3712416,28.9095403 62.5831333,28.9188932 61.9236479,29.2696253 C49.8050208,35.7511548 42.3729487,48.3003499 42.5249578,62.0209902 C42.5319736,62.4933094 42.5460052,62.9749815 42.5717298,63.4636683 C38.186854,65.2196671 35.2916668,68.4089911 34.342195,72.5897179 C32.7613011,79.5505813 36.70652,87.8699471 45.1722534,95.4177022 C45.6095717,95.8105221 46.1661586,96.0045939 46.7204068,95.9999175 C47.1998199,95.9929028 47.679233,95.8385807 48.0838109,95.5299364 C48.9678018,94.8541926 53.0322893,91.6251189 55.3521809,87.6244346 C60.8595848,88.5503674 66.4535169,88.4895738 71.9281804,87.4397157 C73.8201081,90.5097908 76.9702028,93.4325584 79.3649296,95.1792043 C80.2489206,95.8268896 81.46967,95.7497286 82.2718099,95.0015001 C90.5621483,87.2643496 94.3202791,78.8608081 92.5850376,71.935018 C91.5420218,67.7776733 88.5766765,64.6538193 84.1543832,62.9960255 Z M63.4320452,69.4705403 C57.2277384,69.5406867 52.1412825,64.5673053 52.0711245,58.3663616 C52.0033051,52.1607413 56.9751695,47.0751257 63.1794764,47.0049792 C69.3837832,46.9348328 74.470239,51.9082142 74.540397,58.1138344 C74.610555,64.3147782 69.636352,69.4003939 63.4320452,69.4705403 Z" id="Combined-Shape" fill="#FFFFFF" transform="translate(63.500000, 62.500000) rotate(21.000000) translate(-63.500000, -62.500000) "></path>
                        <path d="M58.9487763,58.5105472 C58.9821749,61.5437554 61.4759396,63.9814531 64.5096489,63.94806 C67.5433582,63.9146668 69.9814585,61.4194588 69.9480599,58.3881057 C69.9146613,55.3548975 67.4190411,52.9153446 64.3871872,52.9487378 C61.3534779,52.983986 58.9135221,55.4773389 58.9487763,58.5105472 Z" id="Path" fill="#09ACF8" transform="translate(64.448399, 58.448399) rotate(11.000000) translate(-64.448399, -58.448399) "></path>
                        <path d="M57.4487299,88.8704492 C57.4487299,88.8704492 54.6149803,89.4404864 50.7887849,89.5040517 L50.7845617,89.5040517 C46.9583663,89.5245567 44.1119472,89.0160342 44.1119472,89.0160342 C44.1119472,89.0160342 37.846869,94.2940051 44.0802734,102.243769 C45.1339553,102.231466 46.1813024,101.478935 46.1813024,101.478935 C47.3131129,102.852766 48.8587945,104.175334 50.9703814,105.342065 C53.052406,104.128173 54.570637,102.772797 55.6686622,101.37641 C55.6686622,101.37641 56.732902,102.106386 57.7865838,102.094083 C63.8362802,94.0110369 57.4487299,88.8704492 57.4487299,88.8704492" id="Path" fill="#46C1FB" transform="translate(50.854258, 97.106257) rotate(21.000000) translate(-50.854258, -97.106257) "></path>
                        <path d="M39,29 C43.418278,29 47,25.418278 47,21 C47,16.581722 43.418278,13 39,13 C34.581722,13 31,16.581722 31,21 C31,25.418278 34.581722,29 39,29 Z" id="Oval-14" fill="#FFC103"></path>
                        <path d="M31,24 C32.6568542,24 34,22.6568542 34,21 C34,19.3431458 32.6568542,18 31,18 C29.3431458,18 28,19.3431458 28,21 C28,22.6568542 29.3431458,24 31,24 Z" id="Oval-14-Copy" stroke="#C2EBFE" fill="#FF5721"></path>
                        <path d="M50.5,17 C52.4329966,17 54,15.4329966 54,13.5 C54,11.5670034 52.4329966,10 50.5,10 C48.5670034,10 47,11.5670034 47,13.5 C47,15.4329966 48.5670034,17 50.5,17 Z" id="Oval-14-Copy-2" fill="#50D2C2"></path>
                    </g>
                </g>
            </g>
        </g>
    </g>
</svg>